<svg width="120" height="40" viewBox="0 0 120 40" fill="none" xmlns="http://www.w3.org/2000/svg">
<g clip-path="url(#clip0_5_138)">
<path d="M110.135 -0.000114141H9.53468C9.16798 -0.000114141 8.80568 -0.000114141 8.43995 0.00188586C8.1338 0.00388586 7.83009 0.00969586 7.521 0.0145859C6.84951 0.0224877 6.17961 0.0815621 5.5171 0.191296C4.85552 0.303418 4.21467 0.514802 3.61622 0.818296C3.0185 1.12436 2.47235 1.52205 1.99757 1.99696C1.5203 2.47052 1.12246 3.0179 0.81935 3.61805C0.5154 4.21699 0.304641 4.85882 0.19435 5.52137C0.0830109 6.18307 0.0230984 6.85241 0.01515 7.52337C0.00587 7.82997 0.00489 8.13759 0 8.44423V31.5585C0.00489 31.869 0.00587 32.1698 0.01515 32.4804C0.0231008 33.1513 0.0830134 33.8206 0.19435 34.4823C0.304336 35.1452 0.515108 35.7874 0.81935 36.3866C1.12233 36.9848 1.52022 37.53 1.99757 38.0009C2.47054 38.4779 3.01705 38.8759 3.61622 39.1796C4.21467 39.4839 4.85545 39.6965 5.5171 39.8104C6.17972 39.9192 6.84956 39.9783 7.521 39.9872C7.83009 39.994 8.1338 39.9979 8.43995 39.9979C8.80567 39.9999 9.168 39.9999 9.53468 39.9999H110.135C110.494 39.9999 110.859 39.9999 111.219 39.9979C111.523 39.9979 111.836 39.994 112.141 39.9872C112.811 39.9788 113.479 39.9197 114.141 39.8104C114.804 39.6957 115.448 39.4831 116.049 39.1796C116.647 38.8757 117.193 38.4777 117.666 38.0009C118.142 37.5281 118.541 36.9833 118.848 36.3866C119.15 35.787 119.358 35.1448 119.467 34.4823C119.578 33.8205 119.64 33.1514 119.652 32.4804C119.656 32.1698 119.656 31.869 119.656 31.5585C119.664 31.1952 119.664 30.8339 119.664 30.4647V9.53602C119.664 9.16981 119.664 8.80653 119.656 8.44423C119.656 8.13759 119.656 7.82997 119.652 7.52333C119.64 6.85231 119.578 6.18312 119.467 5.52133C119.358 4.85917 119.149 4.21739 118.848 3.61801C118.23 2.41508 117.252 1.43591 116.049 0.818206C115.448 0.515453 114.804 0.304126 114.141 0.191206C113.48 0.0809886 112.811 0.0218936 112.141 0.0144459C111.836 0.00956586 111.523 0.00370586 111.219 0.00175586C110.859 -0.000244141 110.494 -0.000244141 110.135 -0.000244141V-0.000114141Z" fill="white"/>
<path d="M8.44483 39.125C8.14015 39.125 7.84283 39.1211 7.54054 39.1143C6.91432 39.1061 6.28957 39.0516 5.6714 38.9512C5.09499 38.8519 4.5366 38.6673 4.01466 38.4033C3.4975 38.1415 3.02581 37.7983 2.61766 37.3867C2.2036 36.98 1.85888 36.5082 1.59715 35.9902C1.33254 35.4688 1.14941 34.9099 1.05415 34.333C0.951273 33.7131 0.895613 33.0863 0.887649 32.458C0.881309 32.2471 0.873009 31.5449 0.873009 31.5449V8.44434C0.873009 8.44434 0.881849 7.75293 0.887699 7.5498C0.895325 6.92248 0.950661 6.29665 1.05323 5.67773C1.14867 5.09925 1.33194 4.53875 1.59669 4.01563C1.85745 3.49794 2.20026 3.02586 2.61183 2.61768C3.02293 2.20562 3.49613 1.8606 4.01417 1.59521C4.53491 1.33209 5.09224 1.14873 5.66749 1.05127C6.28769 0.949836 6.91461 0.894996 7.543 0.88721L8.44532 0.875H111.214L112.127 0.8877C112.75 0.895099 113.371 0.94945 113.985 1.05029C114.566 1.14898 115.13 1.33362 115.656 1.59814C116.694 2.13299 117.539 2.97916 118.071 4.01807C118.332 4.53758 118.512 5.09351 118.606 5.66699C118.71 6.29099 118.768 6.92174 118.78 7.5542C118.783 7.8374 118.783 8.1416 118.783 8.44434C118.791 8.81934 118.791 9.17627 118.791 9.53613V30.4648C118.791 30.8281 118.791 31.1826 118.783 31.54C118.783 31.8652 118.783 32.1631 118.779 32.4697C118.768 33.0909 118.71 33.7104 118.608 34.3232C118.515 34.9043 118.333 35.4675 118.068 35.9932C117.805 36.5056 117.462 36.9733 117.053 37.3789C116.644 37.7927 116.172 38.1379 115.653 38.4014C115.128 38.6674 114.566 38.8527 113.985 38.9512C113.367 39.0522 112.742 39.1067 112.116 39.1143C111.823 39.1211 111.517 39.125 111.219 39.125L110.135 39.127L8.44483 39.125Z" fill="white"/>
<path d="M42.3018 27.1397H37.5684L36.4317 30.4961H34.4268L38.9102 18.0781H40.9932L45.4766 30.4961H43.4375L42.3018 27.1397ZM38.0586 25.5908H41.8106L39.961 20.1436H39.9092L38.0586 25.5908Z" fill="black"/>
<path d="M55.1592 25.9697C55.1592 28.7832 53.6533 30.5908 51.3809 30.5908C50.8052 30.6209 50.2327 30.4883 49.7289 30.2082C49.2251 29.928 48.8104 29.5117 48.5322 29.0068H48.4893V33.4912H46.6309V21.4423H48.4297V22.9482H48.4639C48.7548 22.4457 49.1765 22.0316 49.6842 21.7497C50.1918 21.4679 50.7663 21.3289 51.3467 21.3476C53.6445 21.3476 55.1592 23.164 55.1592 25.9697ZM53.249 25.9697C53.249 24.1367 52.3018 22.9316 50.8565 22.9316C49.4365 22.9316 48.4815 24.1621 48.4815 25.9697C48.4815 27.7939 49.4365 29.0156 50.8565 29.0156C52.3018 29.0156 53.249 27.8193 53.249 25.9697H53.249Z" fill="black"/>
<path d="M65.1245 25.9697C65.1245 28.7832 63.6182 30.5908 61.3457 30.5908C60.7701 30.6209 60.1976 30.4883 59.6938 30.2082C59.19 29.928 58.7753 29.5117 58.4971 29.0068H58.4541V33.4912H56.5957V21.4423H58.3945V22.9482H58.4287C58.7197 22.4457 59.1414 22.0316 59.649 21.7497C60.1566 21.4679 60.7312 21.3289 61.3115 21.3476C63.6094 21.3476 65.1245 23.164 65.1245 25.9697ZM63.2139 25.9697C63.2139 24.1367 62.2666 22.9316 60.8213 22.9316C59.4014 22.9316 58.4463 24.1621 58.4463 25.9697C58.4463 27.7939 59.4014 29.0156 60.8213 29.0156C62.2666 29.0156 63.2139 27.8193 63.2139 25.9697Z" fill="black"/>
<path d="M71.7095 27.0362C71.8472 28.2676 73.0435 29.0762 74.6782 29.0762C76.2446 29.0762 77.3716 28.2676 77.3716 27.1572C77.3716 26.1934 76.6919 25.6162 75.0825 25.2207L73.4732 24.833C71.1929 24.2822 70.1343 23.2158 70.1343 21.4854C70.1343 19.3428 72.0015 17.8711 74.6519 17.8711C77.2769 17.8711 79.0757 19.3428 79.1363 21.4854H77.2603C77.148 20.2461 76.1235 19.4981 74.6265 19.4981C73.1294 19.4981 72.105 20.2549 72.105 21.3565C72.105 22.2344 72.7593 22.751 74.3599 23.1465L75.728 23.4824C78.2759 24.0849 79.3335 25.1084 79.3335 26.9248C79.3335 29.248 77.4839 30.7031 74.5405 30.7031C71.7866 30.7031 69.9272 29.2822 69.8071 27.0361L71.7095 27.0362Z" fill="black"/>
<path d="M83.3462 19.2998V21.4424H85.0679V22.9141H83.3462V27.9053C83.3462 28.6807 83.6909 29.042 84.4478 29.042C84.6522 29.0384 84.8562 29.0241 85.0591 28.999V30.4619C84.7188 30.5255 84.373 30.5543 84.0269 30.5478C82.1939 30.5478 81.479 29.8593 81.479 28.1035V22.9141H80.1626V21.4424H81.479V19.2998H83.3462Z" fill="black"/>
<path d="M86.064 25.9697C86.064 23.1211 87.7417 21.3311 90.3579 21.3311C92.9829 21.3311 94.6529 23.1211 94.6529 25.9697C94.6529 28.8262 92.9917 30.6084 90.3579 30.6084C87.7251 30.6084 86.064 28.8262 86.064 25.9697ZM92.7593 25.9697C92.7593 24.0156 91.8638 22.8623 90.3579 22.8623C88.8521 22.8623 87.9566 24.0244 87.9566 25.9697C87.9566 27.9316 88.8521 29.0762 90.3579 29.0762C91.8638 29.0762 92.7593 27.9316 92.7593 25.9697H92.7593Z" fill="black"/>
<path d="M96.1851 21.4425H97.9575V22.9835H98.0005C98.1205 22.5022 98.4024 22.0769 98.799 21.779C99.1956 21.4811 99.6826 21.3288 100.178 21.3478C100.392 21.347 100.606 21.3703 100.815 21.4171V23.1554C100.545 23.0728 100.263 23.0348 99.98 23.0431C99.71 23.0321 99.4409 23.0797 99.191 23.1826C98.9412 23.2855 98.7166 23.4412 98.5326 23.6391C98.3486 23.837 98.2096 24.0724 98.1252 24.3291C98.0408 24.5857 98.0129 24.8576 98.0435 25.1261V30.4962H96.1851L96.1851 21.4425Z" fill="black"/>
<path d="M109.383 27.8369C109.133 29.4805 107.533 30.6084 105.485 30.6084C102.851 30.6084 101.216 28.8437 101.216 26.0127C101.216 23.1729 102.86 21.3311 105.407 21.3311C107.912 21.3311 109.487 23.0518 109.487 25.7969V26.4336H103.092V26.5459C103.063 26.8791 103.105 27.2148 103.215 27.5306C103.325 27.8464 103.501 28.1352 103.731 28.3778C103.962 28.6203 104.241 28.8111 104.551 28.9374C104.861 29.0637 105.194 29.1226 105.528 29.1103C105.967 29.1515 106.408 29.0498 106.784 28.8203C107.161 28.5909 107.454 28.246 107.619 27.8369L109.383 27.8369ZM103.101 25.1348H107.627C107.644 24.8352 107.599 24.5354 107.494 24.2541C107.389 23.9729 107.228 23.7164 107.019 23.5006C106.811 23.2849 106.56 23.1145 106.282 23.0003C106.005 22.8861 105.707 22.8305 105.407 22.8369C105.104 22.8351 104.804 22.8933 104.524 23.008C104.244 23.1227 103.99 23.2918 103.775 23.5054C103.561 23.7191 103.391 23.973 103.275 24.2527C103.159 24.5323 103.1 24.8321 103.101 25.1348V25.1348Z" fill="black"/>
<path d="M37.8262 8.73089C38.2158 8.70293 38.6068 8.76179 38.9709 8.90323C39.335 9.04466 39.6632 9.26514 39.9318 9.54876C40.2003 9.83239 40.4026 10.1721 40.524 10.5434C40.6454 10.9146 40.6829 11.3082 40.6338 11.6957C40.6338 13.602 39.6035 14.6977 37.8262 14.6977H35.6709V8.73089H37.8262ZM36.5977 13.8539H37.7227C38.0011 13.8705 38.2797 13.8249 38.5382 13.7203C38.7968 13.6157 39.0287 13.4547 39.2172 13.2491C39.4057 13.0436 39.546 12.7986 39.6279 12.532C39.7097 12.2653 39.7311 11.9838 39.6904 11.7079C39.7281 11.4331 39.7046 11.1533 39.6215 10.8886C39.5384 10.624 39.3977 10.381 39.2097 10.177C39.0216 9.9731 38.7908 9.81329 38.5337 9.70905C38.2766 9.60481 37.9997 9.55873 37.7227 9.5741H36.5977V13.8539Z" fill="black"/>
<path d="M41.6807 12.4443C41.6524 12.1484 41.6862 11.8498 41.7801 11.5677C41.8739 11.2857 42.0257 11.0263 42.2256 10.8063C42.4255 10.5864 42.6693 10.4106 42.9411 10.2903C43.213 10.17 43.507 10.1079 43.8042 10.1079C44.1015 10.1079 44.3955 10.17 44.6673 10.2903C44.9392 10.4106 45.1829 10.5864 45.3828 10.8063C45.5828 11.0263 45.7345 11.2857 45.8284 11.5677C45.9222 11.8498 45.9561 12.1484 45.9278 12.4443C45.9566 12.7405 45.9232 13.0395 45.8296 13.322C45.736 13.6045 45.5843 13.8644 45.3843 14.0848C45.1843 14.3052 44.9404 14.4813 44.6683 14.6019C44.3962 14.7224 44.1018 14.7847 43.8042 14.7847C43.5066 14.7847 43.2123 14.7224 42.9401 14.6019C42.668 14.4813 42.4241 14.3052 42.2241 14.0848C42.0241 13.8644 41.8725 13.6045 41.7789 13.322C41.6853 13.0395 41.6518 12.7405 41.6807 12.4443ZM45.0137 12.4443C45.0137 11.4682 44.5752 10.8974 43.8057 10.8974C43.0332 10.8974 42.5987 11.4682 42.5987 12.4443C42.5987 13.4282 43.0333 13.9946 43.8057 13.9946C44.5752 13.9946 45.0137 13.4243 45.0137 12.4443H45.0137Z" fill="black"/>
<path d="M51.5733 14.6978H50.6514L49.7207 11.3813H49.6504L48.7237 14.6978H47.8106L46.5694 10.1948H47.4707L48.2774 13.6308H48.3438L49.2696 10.1948H50.1221L51.0479 13.6308H51.1182L51.9209 10.1948H52.8096L51.5733 14.6978Z" fill="black"/>
<path d="M53.8535 10.1949H54.709V10.9102H54.7754C54.8881 10.6533 55.0781 10.4379 55.3189 10.2941C55.5598 10.1503 55.8395 10.0852 56.1192 10.1079C56.3383 10.0915 56.5583 10.1245 56.7629 10.2046C56.9675 10.2847 57.1514 10.4098 57.3011 10.5707C57.4508 10.7315 57.5624 10.924 57.6276 11.1338C57.6928 11.3436 57.7099 11.5654 57.6777 11.7827V14.6977H56.7891V12.0059C56.7891 11.2823 56.4746 10.9224 55.8174 10.9224C55.6686 10.9155 55.5201 10.9408 55.3821 10.9966C55.244 11.0525 55.1197 11.1375 55.0176 11.2459C54.9154 11.3543 54.8379 11.4834 54.7904 11.6246C54.7429 11.7657 54.7264 11.9154 54.7422 12.0635V14.6978H53.8535L53.8535 10.1949Z" fill="black"/>
<path d="M59.0938 8.43701H59.9824V14.6978H59.0938V8.43701Z" fill="black"/>
<path d="M61.2178 12.4444C61.1895 12.1484 61.2234 11.8499 61.3172 11.5678C61.4111 11.2857 61.5629 11.0263 61.7628 10.8064C61.9628 10.5864 62.2065 10.4106 62.4784 10.2903C62.7503 10.17 63.0443 10.1079 63.3416 10.1079C63.6389 10.1079 63.9329 10.17 64.2047 10.2903C64.4766 10.4106 64.7203 10.5864 64.9203 10.8064C65.1203 11.0263 65.272 11.2857 65.3659 11.5678C65.4598 11.8499 65.4936 12.1484 65.4653 12.4444C65.4942 12.7406 65.4607 13.0396 65.3671 13.3221C65.2734 13.6046 65.1217 13.8645 64.9217 14.0849C64.7217 14.3053 64.4778 14.4814 64.2057 14.6019C63.9335 14.7225 63.6392 14.7847 63.3416 14.7847C63.0439 14.7847 62.7496 14.7225 62.4775 14.6019C62.2053 14.4814 61.9614 14.3053 61.7614 14.0849C61.5614 13.8645 61.4097 13.6046 61.3161 13.3221C61.2225 13.0396 61.189 12.7406 61.2178 12.4444ZM64.5508 12.4444C64.5508 11.4683 64.1123 10.8975 63.3428 10.8975C62.5703 10.8975 62.1358 11.4683 62.1358 12.4444C62.1358 13.4283 62.5704 13.9947 63.3428 13.9947C64.1123 13.9947 64.5508 13.4244 64.5508 12.4444H64.5508Z" fill="black"/>
<path d="M66.4009 13.4243C66.4009 12.6138 67.0044 12.1465 68.0757 12.0801L69.2954 12.0098V11.6211C69.2954 11.1455 68.981 10.877 68.3736 10.877C67.8775 10.877 67.5337 11.0591 67.4351 11.3774H66.5747C66.6655 10.604 67.3931 10.1079 68.4146 10.1079C69.5435 10.1079 70.1802 10.6699 70.1802 11.6211V14.6978H69.3247V14.0649H69.2544C69.1117 14.2919 68.9113 14.477 68.6737 14.6012C68.4361 14.7254 68.1697 14.7843 67.9019 14.7719C67.7128 14.7916 67.5218 14.7714 67.341 14.7127C67.1603 14.654 66.9938 14.5581 66.8524 14.4311C66.711 14.3042 66.5977 14.149 66.52 13.9756C66.4422 13.8021 66.4016 13.6144 66.4009 13.4243ZM69.2954 13.0395V12.6631L68.1958 12.7334C67.5757 12.7749 67.2944 12.9858 67.2944 13.3828C67.2944 13.7881 67.646 14.0239 68.1294 14.0239C68.2711 14.0382 68.4142 14.0239 68.5502 13.9819C68.6862 13.9398 68.8123 13.8707 68.9211 13.7789C69.0299 13.6871 69.1191 13.5743 69.1834 13.4473C69.2477 13.3202 69.2858 13.1816 69.2954 13.0395Z" fill="black"/>
<path d="M71.3482 12.4444C71.3482 11.0215 72.0796 10.1201 73.2173 10.1201C73.4987 10.1072 73.778 10.1746 74.0225 10.3145C74.2671 10.4544 74.4667 10.661 74.5982 10.9101H74.6646V8.43701H75.5532V14.6978H74.7017V13.9863H74.6314C74.4898 14.2338 74.2831 14.4378 74.0339 14.5763C73.7846 14.7148 73.5023 14.7825 73.2173 14.772C72.0718 14.772 71.3482 13.8706 71.3482 12.4444ZM72.2662 12.4444C72.2662 13.3994 72.7164 13.9741 73.4693 13.9741C74.2183 13.9741 74.6812 13.3911 74.6812 12.4483C74.6812 11.5098 74.2134 10.9185 73.4693 10.9185C72.7212 10.9185 72.2661 11.4971 72.2661 12.4444H72.2662Z" fill="black"/>
<path d="M79.23 12.4443C79.2017 12.1484 79.2355 11.8498 79.3294 11.5677C79.4232 11.2857 79.575 11.0263 79.7749 10.8063C79.9749 10.5864 80.2186 10.4106 80.4904 10.2903C80.7623 10.17 81.0563 10.1079 81.3535 10.1079C81.6508 10.1079 81.9448 10.17 82.2166 10.2903C82.4885 10.4106 82.7322 10.5864 82.9321 10.8063C83.1321 11.0263 83.2838 11.2857 83.3777 11.5677C83.4715 11.8498 83.5054 12.1484 83.4771 12.4443C83.5059 12.7405 83.4725 13.0395 83.3789 13.322C83.2853 13.6045 83.1336 13.8644 82.9336 14.0848C82.7336 14.3052 82.4897 14.4813 82.2176 14.6019C81.9455 14.7224 81.6512 14.7847 81.3535 14.7847C81.0559 14.7847 80.7616 14.7224 80.4895 14.6019C80.2173 14.4813 79.9734 14.3052 79.7734 14.0848C79.5734 13.8644 79.4218 13.6045 79.3282 13.322C79.2346 13.0395 79.2012 12.7405 79.23 12.4443ZM82.563 12.4443C82.563 11.4682 82.1245 10.8974 81.355 10.8974C80.5825 10.8974 80.148 11.4682 80.148 12.4443C80.148 13.4282 80.5826 13.9946 81.355 13.9946C82.1245 13.9946 82.563 13.4243 82.563 12.4443Z" fill="black"/>
<path d="M84.6694 10.1949H85.5249V10.9102H85.5913C85.704 10.6533 85.894 10.4379 86.1349 10.2941C86.3757 10.1503 86.6555 10.0852 86.9351 10.1079C87.1542 10.0915 87.3742 10.1245 87.5788 10.2046C87.7834 10.2847 87.9673 10.4098 88.117 10.5707C88.2667 10.7315 88.3783 10.924 88.4435 11.1338C88.5087 11.3436 88.5258 11.5654 88.4937 11.7827V14.6977H87.605V12.0059C87.605 11.2823 87.2906 10.9224 86.6333 10.9224C86.4846 10.9155 86.3361 10.9408 86.198 10.9966C86.0599 11.0525 85.9356 11.1375 85.8335 11.2459C85.7313 11.3543 85.6539 11.4834 85.6063 11.6246C85.5588 11.7657 85.5424 11.9154 85.5581 12.0635V14.6978H84.6694V10.1949Z" fill="black"/>
<path d="M93.5152 9.07373V10.2153H94.4908V10.9639H93.5152V13.2793C93.5152 13.751 93.7095 13.9575 94.1519 13.9575C94.2651 13.9572 94.3783 13.9503 94.4908 13.937V14.6772C94.3312 14.7058 94.1695 14.721 94.0073 14.7226C93.0191 14.7226 92.6255 14.375 92.6255 13.5068V10.9638H91.9107V10.2153H92.6255V9.07373H93.5152Z" fill="black"/>
<path d="M95.7046 8.43701H96.5855V10.9185H96.6558C96.7739 10.6591 96.9691 10.4425 97.2148 10.2982C97.4605 10.1539 97.7448 10.0888 98.0288 10.1118C98.2467 10.1 98.4646 10.1364 98.6669 10.2184C98.8692 10.3004 99.0509 10.4261 99.199 10.5864C99.3471 10.7468 99.458 10.9378 99.5238 11.146C99.5896 11.3541 99.6086 11.5742 99.5796 11.7905V14.6978H98.69V12.0098C98.69 11.2905 98.355 10.9263 97.7271 10.9263C97.5744 10.9137 97.4207 10.9347 97.277 10.9878C97.1332 11.0408 97.0027 11.1247 96.8947 11.2334C96.7868 11.3421 96.7038 11.4732 96.6518 11.6173C96.5997 11.7614 96.5797 11.9152 96.5933 12.0679V14.6977H95.7047L95.7046 8.43701Z" fill="black"/>
<path d="M104.761 13.482C104.641 13.8935 104.379 14.2495 104.022 14.4877C103.666 14.7258 103.236 14.831 102.81 14.7847C102.513 14.7926 102.219 14.7357 101.946 14.6182C101.674 14.5007 101.43 14.3253 101.232 14.1041C101.034 13.883 100.887 13.6214 100.8 13.3376C100.713 13.0538 100.689 12.7545 100.73 12.4605C100.69 12.1656 100.715 11.8657 100.801 11.581C100.888 11.2964 101.034 11.0336 101.231 10.8105C101.428 10.5874 101.671 10.4093 101.942 10.2881C102.214 10.1669 102.509 10.1054 102.806 10.108C104.059 10.108 104.815 10.964 104.815 12.378V12.6881H101.635V12.7379C101.621 12.9031 101.642 13.0695 101.696 13.2262C101.75 13.383 101.837 13.5267 101.95 13.6481C102.062 13.7696 102.2 13.8661 102.352 13.9315C102.504 13.9969 102.669 14.0297 102.834 14.0279C103.047 14.0534 103.262 14.0151 103.453 13.9179C103.644 13.8207 103.801 13.669 103.906 13.482L104.761 13.482ZM101.635 12.0308H103.91C103.921 11.8797 103.9 11.7279 103.849 11.5852C103.798 11.4425 103.718 11.312 103.614 11.2021C103.509 11.0923 103.383 11.0055 103.243 10.9473C103.103 10.8891 102.953 10.8609 102.801 10.8643C102.648 10.8624 102.495 10.8913 102.353 10.9492C102.21 11.0072 102.081 11.093 101.972 11.2017C101.864 11.3104 101.778 11.4398 101.72 11.5822C101.662 11.7246 101.633 11.8771 101.635 12.0308H101.635Z" fill="black"/>
<path d="M24.9965 19.8894C25.0077 19.0215 25.2383 18.1705 25.6667 17.4155C26.0952 16.6606 26.7077 16.0264 27.4471 15.5717C26.9774 14.9008 26.3576 14.3487 25.6372 13.9592C24.9167 13.5697 24.1153 13.3536 23.2967 13.328C21.5505 13.1447 19.8576 14.3729 18.9677 14.3729C18.0607 14.3729 16.6906 13.3462 15.2153 13.3765C14.261 13.4074 13.331 13.6849 12.5158 14.182C11.7007 14.6791 11.0282 15.3789 10.5639 16.2132C8.55278 19.6952 10.0529 24.8126 11.9794 27.6272C12.9433 29.0055 14.0698 30.545 15.5438 30.4904C16.9862 30.4305 17.5249 29.5706 19.266 29.5706C20.9909 29.5706 21.4963 30.4904 23.0003 30.4557C24.548 30.4305 25.5232 29.0713 26.4533 27.68C27.1458 26.698 27.6787 25.6126 28.0323 24.4641C27.133 24.0838 26.3657 23.4472 25.8258 22.6337C25.286 21.8202 24.9976 20.8658 24.9965 19.8894Z" fill="black"/>
<path d="M22.1559 11.4768C22.9999 10.4637 23.4156 9.1616 23.3149 7.84692C22.0256 7.98234 20.8347 8.59854 19.9794 9.57274C19.5612 10.0487 19.2409 10.6023 19.0368 11.2021C18.8328 11.8019 18.7489 12.436 18.7901 13.0682C19.4349 13.0749 20.0729 12.9351 20.6559 12.6594C21.239 12.3838 21.7518 11.9794 22.1559 11.4768Z" fill="black"/>
</g>
<defs>
<clipPath id="clip0_5_138">
<rect width="119.664" height="40" fill="white"/>
</clipPath>
</defs>
</svg>
