<svg width="40" height="38" viewBox="0 0 40 38" fill="none" xmlns="http://www.w3.org/2000/svg">
<path fill-rule="evenodd" clip-rule="evenodd" d="M19.931 0C9.24213 0 0.574585 8.66681 0.574585 19.3587C0.574585 27.912 6.12077 35.1686 13.8116 37.7284C14.779 37.9076 15.1342 37.3085 15.1342 36.7972C15.1342 36.3355 15.1162 34.8105 15.1079 33.1929C9.72293 34.364 8.58663 30.9088 8.58663 30.9088C7.70613 28.6712 6.43746 28.0762 6.43746 28.0762C4.68126 26.8747 6.56984 26.8993 6.56984 26.8993C8.51355 27.0356 9.53702 28.8943 9.53702 28.8943C11.2634 31.8539 14.0652 30.9982 15.1697 30.5036C15.3435 29.2527 15.8451 28.398 16.3987 27.9149C12.0994 27.4254 7.57984 25.7655 7.57984 18.3476C7.57984 16.234 8.33598 14.5071 9.5742 13.1514C9.37322 12.6635 8.71068 10.6948 9.76171 8.02822C9.76171 8.02822 11.3871 7.50792 15.0861 10.0126C16.6301 9.58366 18.286 9.36856 19.931 9.36118C21.5759 9.36856 23.2331 9.58366 24.78 10.0126C28.4744 7.50792 30.0976 8.02822 30.0976 8.02822C31.1512 10.6948 30.4884 12.6635 30.2874 13.1514C31.5285 14.5071 32.2795 16.234 32.2795 18.3476C32.2795 25.7831 27.7513 27.4203 23.4411 27.8995C24.1354 28.5003 24.754 29.6784 24.754 31.4846C24.754 34.0745 24.7316 36.1592 24.7316 36.7972C24.7316 37.3123 25.08 37.916 26.0611 37.7259C33.7479 35.1632 39.287 27.9092 39.287 19.3587C39.287 8.66681 30.6207 0 19.931 0Z" fill="#FFFFFE"/>
<path fill-rule="evenodd" clip-rule="evenodd" d="M19.931 0C9.24213 0 0.574585 8.66681 0.574585 19.3587C0.574585 27.912 6.12077 35.1686 13.8116 37.7284C14.779 37.9076 15.1342 37.3085 15.1342 36.7972C15.1342 36.3355 15.1162 34.8105 15.1079 33.1929C9.72293 34.364 8.58663 30.9088 8.58663 30.9088C7.70613 28.6712 6.43746 28.0762 6.43746 28.0762C4.68126 26.8747 6.56984 26.8993 6.56984 26.8993C8.51355 27.0356 9.53702 28.8943 9.53702 28.8943C11.2634 31.8539 14.0652 30.9982 15.1697 30.5036C15.3435 29.2527 15.8451 28.398 16.3987 27.9149C12.0994 27.4254 7.57984 25.7655 7.57984 18.3476C7.57984 16.234 8.33598 14.5071 9.5742 13.1514C9.37322 12.6635 8.71068 10.6948 9.76171 8.02822C9.76171 8.02822 11.3871 7.50792 15.0861 10.0126C16.6301 9.58366 18.286 9.36856 19.931 9.36118C21.5759 9.36856 23.2331 9.58366 24.78 10.0126C28.4744 7.50792 30.0976 8.02822 30.0976 8.02822C31.1512 10.6948 30.4884 12.6635 30.2874 13.1514C31.5285 14.5071 32.2795 16.234 32.2795 18.3476C32.2795 25.7831 27.7513 27.4203 23.4411 27.8995C24.1354 28.5003 24.754 29.6784 24.754 31.4846C24.754 34.0745 24.7316 36.1592 24.7316 36.7972C24.7316 37.3123 25.08 37.916 26.0611 37.7259C33.7479 35.1632 39.287 27.9092 39.287 19.3587C39.287 8.66681 30.6207 0 19.931 0Z" fill="url(#paint0_linear_64_271)"/>
<path fill-rule="evenodd" clip-rule="evenodd" d="M7.90584 27.795C7.86321 27.8915 7.71192 27.92 7.57409 27.854C7.43369 27.7908 7.35484 27.6597 7.40036 27.5632C7.44203 27.4642 7.59364 27.4369 7.73371 27.5026C7.87443 27.5661 7.95456 27.6985 7.90584 27.795Z" fill="#FFFFFE"/>
<path fill-rule="evenodd" clip-rule="evenodd" d="M7.90584 27.795C7.86321 27.8915 7.71192 27.92 7.57409 27.854C7.43369 27.7908 7.35484 27.6597 7.40036 27.5632C7.44203 27.4642 7.59364 27.4369 7.73371 27.5026C7.87443 27.5661 7.95456 27.6985 7.90584 27.795Z" fill="url(#paint1_linear_64_271)"/>
<path fill-rule="evenodd" clip-rule="evenodd" d="M8.68982 28.6696C8.5975 28.7552 8.41704 28.7154 8.2946 28.5802C8.16799 28.4452 8.14427 28.2647 8.23786 28.1778C8.33306 28.0922 8.50807 28.1323 8.635 28.2673C8.76161 28.4038 8.7863 28.583 8.68982 28.6696Z" fill="#FFFFFE"/>
<path fill-rule="evenodd" clip-rule="evenodd" d="M8.68982 28.6696C8.5975 28.7552 8.41704 28.7154 8.2946 28.5802C8.16799 28.4452 8.14427 28.2647 8.23786 28.1778C8.33306 28.0922 8.50807 28.1323 8.635 28.2673C8.76161 28.4038 8.7863 28.583 8.68982 28.6696Z" fill="url(#paint2_linear_64_271)"/>
<path fill-rule="evenodd" clip-rule="evenodd" d="M9.45291 29.7843C9.33432 29.8667 9.14039 29.7894 9.02051 29.6172C8.90192 29.4451 8.90192 29.2386 9.02308 29.1559C9.14328 29.0732 9.33432 29.1476 9.4558 29.3185C9.57408 29.4932 9.57408 29.7 9.45291 29.7843Z" fill="#FFFFFE"/>
<path fill-rule="evenodd" clip-rule="evenodd" d="M9.45291 29.7843C9.33432 29.8667 9.14039 29.7894 9.02051 29.6172C8.90192 29.4451 8.90192 29.2386 9.02308 29.1559C9.14328 29.0732 9.33432 29.1476 9.4558 29.3185C9.57408 29.4932 9.57408 29.7 9.45291 29.7843Z" fill="url(#paint3_linear_64_271)"/>
<path fill-rule="evenodd" clip-rule="evenodd" d="M10.4987 30.8616C10.3926 30.9786 10.1666 30.9472 10.0012 30.7875C9.832 30.6314 9.78488 30.4099 9.8913 30.2929C9.99867 30.1756 10.2259 30.2086 10.3926 30.3669C10.5606 30.5227 10.6119 30.7459 10.4987 30.8616Z" fill="#FFFFFE"/>
<path fill-rule="evenodd" clip-rule="evenodd" d="M10.4987 30.8616C10.3926 30.9786 10.1666 30.9472 10.0012 30.7875C9.832 30.6314 9.78488 30.4099 9.8913 30.2929C9.99867 30.1756 10.2259 30.2086 10.3926 30.3669C10.5606 30.5227 10.6119 30.7459 10.4987 30.8616Z" fill="url(#paint4_linear_64_271)"/>
<path fill-rule="evenodd" clip-rule="evenodd" d="M11.941 31.4873C11.8942 31.6389 11.6766 31.7078 11.4573 31.6434C11.2384 31.577 11.0951 31.3994 11.1394 31.2462C11.1849 31.0936 11.4035 31.0218 11.6243 31.0907C11.8429 31.1568 11.9865 31.3331 11.941 31.4873Z" fill="#FFFFFE"/>
<path fill-rule="evenodd" clip-rule="evenodd" d="M11.941 31.4873C11.8942 31.6389 11.6766 31.7078 11.4573 31.6434C11.2384 31.577 11.0951 31.3994 11.1394 31.2462C11.1849 31.0936 11.4035 31.0218 11.6243 31.0907C11.8429 31.1568 11.9865 31.3331 11.941 31.4873Z" fill="url(#paint5_linear_64_271)"/>
<path fill-rule="evenodd" clip-rule="evenodd" d="M13.5251 31.6029C13.5306 31.7625 13.3447 31.8949 13.1145 31.8975C12.8831 31.9029 12.6959 31.7737 12.6934 31.6166C12.6934 31.4554 12.8751 31.3243 13.1065 31.3204C13.3367 31.3159 13.5251 31.4442 13.5251 31.6029Z" fill="#FFFFFE"/>
<path fill-rule="evenodd" clip-rule="evenodd" d="M13.5251 31.6029C13.5306 31.7625 13.3447 31.8949 13.1145 31.8975C12.8831 31.9029 12.6959 31.7737 12.6934 31.6166C12.6934 31.4554 12.8751 31.3243 13.1065 31.3204C13.3367 31.3159 13.5251 31.4442 13.5251 31.6029Z" fill="url(#paint6_linear_64_271)"/>
<path fill-rule="evenodd" clip-rule="evenodd" d="M14.9992 31.3522C15.0268 31.508 14.8668 31.668 14.6383 31.7103C14.4136 31.7516 14.2056 31.6555 14.1771 31.501C14.1492 31.3413 14.312 31.1813 14.5364 31.14C14.7652 31.1002 14.9701 31.1938 14.9992 31.3522Z" fill="#FFFFFE"/>
<path fill-rule="evenodd" clip-rule="evenodd" d="M14.9992 31.3522C15.0268 31.508 14.8668 31.668 14.6383 31.7103C14.4136 31.7516 14.2056 31.6555 14.1771 31.501C14.1492 31.3413 14.312 31.1813 14.5364 31.14C14.7652 31.1002 14.9701 31.1938 14.9992 31.3522Z" fill="url(#paint7_linear_64_271)"/>
<defs>
<linearGradient id="paint0_linear_64_271" x1="0.880909" y1="13.2073" x2="39.9542" y2="13.52" gradientUnits="userSpaceOnUse">
<stop stop-color="white"/>
<stop offset="1" stop-color="#FCDDFF"/>
</linearGradient>
<linearGradient id="paint1_linear_64_271" x1="7.39257" y1="27.6929" x2="8.045" y2="27.698" gradientUnits="userSpaceOnUse">
<stop stop-color="white"/>
<stop offset="1" stop-color="#FCDDFF"/>
</linearGradient>
<linearGradient id="paint2_linear_64_271" x1="8.18602" y1="28.3589" x2="8.83846" y2="28.364" gradientUnits="userSpaceOnUse">
<stop stop-color="white"/>
<stop offset="1" stop-color="#FCDDFF"/>
</linearGradient>
<linearGradient id="paint3_linear_64_271" x1="8.937" y1="29.3653" x2="9.58944" y2="29.37" gradientUnits="userSpaceOnUse">
<stop stop-color="white"/>
<stop offset="1" stop-color="#FCDDFF"/>
</linearGradient>
<linearGradient id="paint4_linear_64_271" x1="9.84033" y1="30.4708" x2="10.5717" y2="30.4766" gradientUnits="userSpaceOnUse">
<stop stop-color="white"/>
<stop offset="1" stop-color="#FCDDFF"/>
</linearGradient>
<linearGradient id="paint5_linear_64_271" x1="11.1378" y1="31.2905" x2="11.9635" y2="31.2987" gradientUnits="userSpaceOnUse">
<stop stop-color="white"/>
<stop offset="1" stop-color="#FCDDFF"/>
</linearGradient>
<linearGradient id="paint6_linear_64_271" x1="12.6999" y1="31.5464" x2="13.5396" y2="31.5548" gradientUnits="userSpaceOnUse">
<stop stop-color="white"/>
<stop offset="1" stop-color="#FCDDFF"/>
</linearGradient>
<linearGradient id="paint7_linear_64_271" x1="14.1805" y1="31.3569" x2="15.0166" y2="31.3653" gradientUnits="userSpaceOnUse">
<stop stop-color="white"/>
<stop offset="1" stop-color="#FCDDFF"/>
</linearGradient>
</defs>
</svg>
