<svg width="136" height="40" viewBox="0 0 136 40" fill="none" xmlns="http://www.w3.org/2000/svg">
<g clip-path="url(#clip0_5_167)">
<rect x="0.664062" width="135" height="40" rx="5" fill="white"/>
<path d="M130.664 40H5.66306C2.91306 40 0.664062 37.75 0.664062 35V5C0.664062 2.25 2.91306 0 5.66306 0H130.664C133.414 0 135.664 2.25 135.664 5V35C135.664 37.75 133.414 40 130.664 40Z" fill="white"/>
<path d="M130.664 0H5.66306C2.91306 0 0.664062 2.25 0.664062 5V35C0.664062 37.75 2.91306 40 5.66306 40H130.664C133.414 40 135.664 37.75 135.664 35V5C135.664 2.25 133.414 0 130.664 0ZM130.664 0.8C132.98 0.8 134.864 2.684 134.864 5V35C134.864 37.316 132.98 39.201 130.664 39.201H5.66306C3.34706 39.201 1.46406 37.316 1.46406 35V5C1.46406 2.684 3.34706 0.8 5.66306 0.8H130.664Z" fill="white"/>
<path d="M11.0503 7.60205C10.7593 7.91005 10.5873 8.38805 10.5873 9.00705V31.1231C10.5873 31.7431 10.7593 32.2201 11.0503 32.5281L11.1243 32.6001L23.5133 20.2111V20.0651V19.9191L11.1243 7.52905L11.0503 7.60205Z" fill="url(#paint0_linear_5_167)"/>
<path d="M27.6433 24.343L23.5143 20.212V20.066V19.92L27.6443 15.79L27.7373 15.843L32.6303 18.623C34.0283 19.417 34.0283 20.716 32.6303 21.511L27.7373 24.291L27.6433 24.343Z" fill="url(#paint1_linear_5_167)"/>
<path d="M27.7373 24.2889L23.5143 20.0649L11.0503 32.5279C11.5113 33.0159 12.2713 33.0759 13.1283 32.5889L27.7373 24.2889Z" fill="url(#paint2_linear_5_167)"/>
<path d="M27.7373 15.841L13.1293 7.54101C12.2723 7.05401 11.5123 7.11501 11.0513 7.60201L23.5143 20.065L27.7373 15.841Z" fill="url(#paint3_linear_5_167)"/>
<path opacity="0.2" d="M27.6443 24.196L13.1293 32.443C12.3173 32.904 11.5913 32.874 11.1253 32.454L11.0503 32.529L11.1243 32.601C11.5903 33.021 12.3163 33.052 13.1283 32.59L27.7363 24.29L27.6443 24.196Z" fill="black"/>
<path opacity="0.12" d="M11.0503 32.3821C10.7593 32.0741 10.5873 31.5961 10.5873 30.9771V31.1231C10.5873 31.7421 10.7593 32.2201 11.0503 32.5281L11.1253 32.4531L11.0503 32.3821Z" fill="black"/>
<path opacity="0.12" d="M32.6303 21.3629L27.6443 24.1959L27.7373 24.2889L32.6303 21.5089C33.3293 21.1119 33.6783 20.5889 33.6783 20.0659C33.6193 20.5389 33.2633 21.0029 32.6303 21.3629Z" fill="black"/>
<path opacity="0.25" d="M13.1283 7.68702L32.6293 18.767C33.2633 19.127 33.6183 19.591 33.6773 20.065C33.6773 19.542 33.3283 19.018 32.6293 18.621L13.1283 7.54102C11.7303 6.74702 10.5873 7.40602 10.5873 9.00702V9.15402C10.5873 7.55302 11.7313 6.89302 13.1283 7.68702Z" fill="white"/>
<path d="M68.7581 21.705C66.4061 21.705 64.4891 23.493 64.4891 25.958C64.4891 28.407 66.4061 30.211 68.7581 30.211C71.1101 30.211 73.0271 28.407 73.0271 25.958C73.0271 23.493 71.1101 21.705 68.7581 21.705ZM68.7581 28.536C67.4691 28.536 66.3571 27.473 66.3571 25.958C66.3571 24.427 67.4691 23.38 68.7581 23.38C70.0471 23.38 71.1581 24.427 71.1581 25.958C71.1581 27.472 70.0471 28.536 68.7581 28.536ZM59.4441 21.705C57.0921 21.705 55.1751 23.493 55.1751 25.958C55.1751 28.407 57.0921 30.211 59.4441 30.211C61.7961 30.211 63.7131 28.407 63.7131 25.958C63.7141 23.493 61.7961 21.705 59.4441 21.705ZM59.4441 28.536C58.1551 28.536 57.0441 27.473 57.0441 25.958C57.0441 24.427 58.1561 23.38 59.4441 23.38C60.7331 23.38 61.8441 24.427 61.8441 25.958C61.8451 27.472 60.7331 28.536 59.4441 28.536ZM48.3661 23.01V24.814H52.6841C52.5551 25.829 52.2171 26.57 51.7011 27.086C51.0731 27.714 50.0901 28.407 48.3661 28.407C45.7081 28.407 43.6301 26.264 43.6301 23.606C43.6301 20.948 45.7081 18.805 48.3661 18.805C49.8001 18.805 50.8471 19.369 51.6201 20.094L52.8931 18.821C51.8141 17.79 50.3801 17 48.3661 17C44.7251 17 41.6641 19.964 41.6641 23.605C41.6641 27.246 44.7251 30.21 48.3661 30.21C50.3311 30.21 51.8141 29.566 52.9741 28.357C54.1661 27.165 54.5371 25.489 54.5371 24.136C54.5371 23.717 54.5051 23.33 54.4401 23.008H48.3661V23.01ZM93.6741 24.411C93.3201 23.46 92.2401 21.704 90.0331 21.704C87.8421 21.704 86.0221 23.428 86.0221 25.957C86.0221 28.341 87.8261 30.21 90.2431 30.21C92.1921 30.21 93.3201 29.018 93.7871 28.325L92.3371 27.358C91.8541 28.067 91.1931 28.534 90.2431 28.534C89.2921 28.534 88.6161 28.099 88.1811 27.245L93.8681 24.893L93.6741 24.411ZM87.8741 25.829C87.8261 24.186 89.1471 23.348 90.0971 23.348C90.8381 23.348 91.4661 23.718 91.6761 24.25L87.8741 25.829ZM83.2501 29.953H85.1191V17.452H83.2501V29.953ZM80.1891 22.655H80.1251C79.7061 22.156 78.9011 21.704 77.8861 21.704C75.7591 21.704 73.8101 23.573 73.8101 25.973C73.8101 28.357 75.7591 30.21 77.8861 30.21C78.9011 30.21 79.7061 29.759 80.1251 29.243H80.1891V29.855C80.1891 31.482 79.3191 32.352 77.9171 32.352C76.7731 32.352 76.0641 31.53 75.7741 30.838L74.1471 31.515C74.6141 32.643 75.8551 34.028 77.9171 34.028C80.1081 34.028 81.9611 32.739 81.9611 29.598V21.962H80.1891V22.655ZM78.0471 28.536C76.7581 28.536 75.6791 27.457 75.6791 25.974C75.6791 24.476 76.7581 23.38 78.0471 23.38C79.3201 23.38 80.3181 24.475 80.3181 25.974C80.3181 27.456 79.3201 28.536 78.0471 28.536ZM102.428 17.452H97.9571V29.953H99.8221V25.217H102.427C104.495 25.217 106.528 23.72 106.528 21.335C106.528 18.95 104.496 17.452 102.428 17.452ZM102.476 23.477H99.8221V19.192H102.476C103.871 19.192 104.663 20.347 104.663 21.335C104.663 22.303 103.871 23.477 102.476 23.477ZM114.008 21.682C112.657 21.682 111.258 22.277 110.679 23.596L112.336 24.288C112.69 23.596 113.349 23.371 114.041 23.371C115.006 23.371 115.987 23.95 116.003 24.979V25.108C115.665 24.915 114.941 24.625 114.057 24.625C112.272 24.625 110.454 25.606 110.454 27.44C110.454 29.113 111.918 30.19 113.558 30.19C114.813 30.19 115.504 29.627 115.938 28.968H116.002V29.933H117.803V25.14C117.803 22.92 116.147 21.682 114.008 21.682ZM113.782 28.533C113.171 28.533 112.318 28.227 112.318 27.472C112.318 26.507 113.38 26.137 114.296 26.137C115.116 26.137 115.502 26.314 116.001 26.555C115.857 27.713 114.86 28.533 113.782 28.533ZM124.365 21.955L122.226 27.375H122.162L119.943 21.955H117.933L121.262 29.53L119.364 33.744H121.31L126.441 21.955H124.365ZM107.558 29.953H109.424V17.452H107.558V29.953Z" fill="black"/>
<path fill-rule="evenodd" clip-rule="evenodd" d="M74.2731 12.224C73.6831 12.831 72.9501 13.133 72.0731 13.133C71.1961 13.133 70.4631 12.83 69.8741 12.224C69.2841 11.618 68.9901 10.876 68.9901 9.99901C68.9901 9.12201 69.2841 8.38001 69.8741 7.77401C70.4631 7.16701 71.1961 6.86401 72.0731 6.86401C72.9451 6.86401 73.6771 7.16901 74.2691 7.77801C74.8611 8.38701 75.1571 9.12701 75.1571 9.99901C75.1571 10.877 74.8621 11.619 74.2731 12.224ZM70.4431 11.722C70.8871 12.172 71.4301 12.396 72.0731 12.396C72.7161 12.396 73.2591 12.171 73.7031 11.722C74.1471 11.272 74.3701 10.698 74.3701 10C74.3701 9.30201 74.1471 8.72701 73.7031 8.27801C73.2601 7.82801 72.7161 7.60401 72.0731 7.60401C71.4301 7.60401 70.8871 7.82901 70.4431 8.27801C70.0001 8.72801 69.7771 9.30201 69.7771 10C69.7771 10.698 70.0001 11.272 70.4431 11.722Z" fill="black"/>
<path d="M48.0821 10.243C48.0821 11.081 47.8341 11.748 47.3371 12.246C46.7731 12.838 46.0371 13.134 45.1331 13.134C44.2671 13.134 43.5301 12.834 42.9251 12.234C42.3191 11.633 42.0161 10.889 42.0161 10.001C42.0161 9.11201 42.3191 8.36801 42.9251 7.76801C43.5301 7.16701 44.2671 6.86701 45.1331 6.86701C45.5631 6.86701 45.9741 6.95101 46.3641 7.11801C46.7551 7.28601 47.0681 7.50901 47.3021 7.78801L46.7751 8.31601C46.3781 7.84101 45.8311 7.60401 45.1321 7.60401C44.5001 7.60401 43.9541 7.82601 43.4931 8.27001C43.0331 8.71401 42.8031 9.29001 42.8031 10C42.8031 10.71 43.0331 11.286 43.4941 11.731C43.9551 12.175 44.5011 12.397 45.1331 12.397C45.8031 12.397 46.3621 12.174 46.8091 11.727C47.0991 11.436 47.2671 11.031 47.3121 10.512H45.1331V9.79001H48.0401C48.0691 9.94701 48.0821 10.098 48.0821 10.243Z" fill="black"/>
<path d="M52.6921 7.73702H49.9601V9.63902H52.4241V10.36H49.9601V12.262H52.6921V13H49.1891V7.00002H52.6921V7.73702Z" fill="black"/>
<path d="M55.1711 13H55.9421V7.73702H57.6181V7.00002H53.4951V7.73702H55.1711V13Z" fill="black"/>
<path d="M60.6021 13V7.00002H61.3731V13H60.6021Z" fill="black"/>
<path d="M64.0201 13H64.7911V7.73702H66.4671V7.00002H62.3441V7.73702H64.0201V13Z" fill="black"/>
<path d="M76.2391 7.00002V13H77.0081V9.26202L76.9751 8.10602H77.0081L80.0591 13H80.8641V7.00002H80.0931V10.512L80.1261 11.668H80.0931L77.1771 7.00002H76.2391Z" fill="black"/>
<path fill-rule="evenodd" clip-rule="evenodd" d="M74.2731 12.224C73.6831 12.831 72.9501 13.133 72.0731 13.133C71.1961 13.133 70.4631 12.83 69.8741 12.224C69.2841 11.618 68.9901 10.876 68.9901 9.99901C68.9901 9.12201 69.2841 8.38001 69.8741 7.77401C70.4631 7.16701 71.1961 6.86401 72.0731 6.86401C72.9451 6.86401 73.6771 7.16901 74.2691 7.77801C74.8611 8.38701 75.1571 9.12701 75.1571 9.99901C75.1571 10.877 74.8621 11.619 74.2731 12.224ZM70.4431 11.722C70.8871 12.172 71.4301 12.396 72.0731 12.396C72.7161 12.396 73.2591 12.171 73.7031 11.722C74.1471 11.272 74.3701 10.698 74.3701 10C74.3701 9.30201 74.1471 8.72701 73.7031 8.27801C73.2601 7.82801 72.7161 7.60401 72.0731 7.60401C71.4301 7.60401 70.8871 7.82901 70.4431 8.27801C70.0001 8.72801 69.7771 9.30201 69.7771 10C69.7771 10.698 70.0001 11.272 70.4431 11.722Z" stroke="black" stroke-width="0.2" stroke-miterlimit="10"/>
<path d="M48.0821 10.243C48.0821 11.081 47.8341 11.748 47.3371 12.246C46.7731 12.838 46.0371 13.134 45.1331 13.134C44.2671 13.134 43.5301 12.834 42.9251 12.234C42.3191 11.633 42.0161 10.889 42.0161 10.001C42.0161 9.11201 42.3191 8.36801 42.9251 7.76801C43.5301 7.16701 44.2671 6.86701 45.1331 6.86701C45.5631 6.86701 45.9741 6.95101 46.3641 7.11801C46.7551 7.28601 47.0681 7.50901 47.3021 7.78801L46.7751 8.31601C46.3781 7.84101 45.8311 7.60401 45.1321 7.60401C44.5001 7.60401 43.9541 7.82601 43.4931 8.27001C43.0331 8.71401 42.8031 9.29001 42.8031 10C42.8031 10.71 43.0331 11.286 43.4941 11.731C43.9551 12.175 44.5011 12.397 45.1331 12.397C45.8031 12.397 46.3621 12.174 46.8091 11.727C47.0991 11.436 47.2671 11.031 47.3121 10.512H45.1331V9.79001H48.0401C48.0691 9.94701 48.0821 10.098 48.0821 10.243Z" stroke="black" stroke-width="0.2" stroke-miterlimit="10"/>
<path d="M52.6921 7.73702H49.9601V9.63902H52.4241V10.36H49.9601V12.262H52.6921V13H49.1891V7.00002H52.6921V7.73702Z" stroke="black" stroke-width="0.2" stroke-miterlimit="10"/>
<path d="M55.1711 13H55.9421V7.73702H57.6181V7.00002H53.4951V7.73702H55.1711V13Z" stroke="black" stroke-width="0.2" stroke-miterlimit="10"/>
<path d="M60.6021 13V7.00002H61.3731V13H60.6021Z" stroke="black" stroke-width="0.2" stroke-miterlimit="10"/>
<path d="M64.0201 13H64.7911V7.73702H66.4671V7.00002H62.3441V7.73702H64.0201V13Z" stroke="black" stroke-width="0.2" stroke-miterlimit="10"/>
<path d="M76.2391 7.00002V13H77.0081V9.26202L76.9751 8.10602H77.0081L80.0591 13H80.8641V7.00002H80.0931V10.512L80.1261 11.668H80.0931L77.1771 7.00002H76.2391Z" stroke="black" stroke-width="0.2" stroke-miterlimit="10"/>
</g>
<defs>
<linearGradient id="paint0_linear_5_167" x1="22.4149" y1="8.77385" x2="5.63251" y2="25.5563" gradientUnits="userSpaceOnUse">
<stop stop-color="#00A0FF"/>
<stop offset="0.0066" stop-color="#00A1FF"/>
<stop offset="0.2601" stop-color="#00BEFF"/>
<stop offset="0.5122" stop-color="#00D2FF"/>
<stop offset="0.7604" stop-color="#00DFFF"/>
<stop offset="1" stop-color="#00E3FF"/>
</linearGradient>
<linearGradient id="paint1_linear_5_167" x1="34.4496" y1="20.0655" x2="10.2527" y2="20.0655" gradientUnits="userSpaceOnUse">
<stop stop-color="#FFE000"/>
<stop offset="0.4087" stop-color="#FFBD00"/>
<stop offset="0.7754" stop-color="#FFA500"/>
<stop offset="1" stop-color="#FF9C00"/>
</linearGradient>
<linearGradient id="paint2_linear_5_167" x1="25.4422" y1="22.3601" x2="2.68392" y2="45.1184" gradientUnits="userSpaceOnUse">
<stop stop-color="#FF3A44"/>
<stop offset="1" stop-color="#C31162"/>
</linearGradient>
<linearGradient id="paint3_linear_5_167" x1="7.91253" y1="0.240313" x2="18.0751" y2="10.4028" gradientUnits="userSpaceOnUse">
<stop stop-color="#32A071"/>
<stop offset="0.0685" stop-color="#2DA771"/>
<stop offset="0.4762" stop-color="#15CF74"/>
<stop offset="0.8009" stop-color="#06E775"/>
<stop offset="1" stop-color="#00F076"/>
</linearGradient>
<clipPath id="clip0_5_167">
<rect x="0.664062" width="135" height="40" rx="5" fill="white"/>
</clipPath>
</defs>
</svg>
