<svg width="39" height="39" viewBox="0 0 39 39" fill="none" xmlns="http://www.w3.org/2000/svg">
<path fill-rule="evenodd" clip-rule="evenodd" d="M19.3923 0C8.68221 0 0 8.68221 0 19.3923C0 30.1023 8.68221 38.7845 19.3923 38.7845C30.1023 38.7845 38.7845 30.1023 38.7845 19.3923C38.7845 8.68221 30.1023 0 19.3923 0ZM15.1286 9.11238C16.2318 9.06217 16.5843 9.04989 19.3932 9.04989H19.39C22.1997 9.04989 22.5509 9.06217 23.6541 9.11238C24.7552 9.1628 25.5072 9.33711 26.1665 9.59288C26.8474 9.85683 27.4228 10.2102 27.9981 10.7855C28.5734 11.3604 28.9267 11.9374 29.1918 12.6177C29.446 13.2753 29.6206 14.0269 29.6723 15.1279C29.7218 16.2311 29.7348 16.5836 29.7348 19.3925C29.7348 22.2014 29.7218 22.5531 29.6723 23.6563C29.6206 24.7569 29.446 25.5087 29.1918 26.1665C28.9267 26.8466 28.5734 27.4236 27.9981 27.9985C27.4234 28.5738 26.8472 28.928 26.1672 29.1922C25.5091 29.448 24.7567 29.6223 23.6557 29.6727C22.5524 29.7229 22.201 29.7352 19.3919 29.7352C16.5832 29.7352 16.2309 29.7229 15.1277 29.6727C14.0269 29.6223 13.2751 29.448 12.617 29.1922C11.9372 28.928 11.3602 28.5738 10.7855 27.9985C10.2104 27.4236 9.85705 26.8466 9.59267 26.1663C9.33712 25.5087 9.1628 24.7571 9.11217 23.6561C9.06218 22.5529 9.04968 22.2014 9.04968 19.3925C9.04968 16.5836 9.06261 16.2309 9.11195 15.1277C9.16151 14.0271 9.33604 13.2753 9.59245 12.6175C9.85748 11.9374 10.2109 11.3604 10.7862 10.7855C11.361 10.2104 11.9381 9.85705 12.6183 9.59288C13.2759 9.33711 14.0275 9.1628 15.1286 9.11238Z" fill="white"/>
<path fill-rule="evenodd" clip-rule="evenodd" d="M19.3923 0C8.68221 0 0 8.68221 0 19.3923C0 30.1023 8.68221 38.7845 19.3923 38.7845C30.1023 38.7845 38.7845 30.1023 38.7845 19.3923C38.7845 8.68221 30.1023 0 19.3923 0ZM15.1286 9.11238C16.2318 9.06217 16.5843 9.04989 19.3932 9.04989H19.39C22.1997 9.04989 22.5509 9.06217 23.6541 9.11238C24.7552 9.1628 25.5072 9.33711 26.1665 9.59288C26.8474 9.85683 27.4228 10.2102 27.9981 10.7855C28.5734 11.3604 28.9267 11.9374 29.1918 12.6177C29.446 13.2753 29.6206 14.0269 29.6723 15.1279C29.7218 16.2311 29.7348 16.5836 29.7348 19.3925C29.7348 22.2014 29.7218 22.5531 29.6723 23.6563C29.6206 24.7569 29.446 25.5087 29.1918 26.1665C28.9267 26.8466 28.5734 27.4236 27.9981 27.9985C27.4234 28.5738 26.8472 28.928 26.1672 29.1922C25.5091 29.448 24.7567 29.6223 23.6557 29.6727C22.5524 29.7229 22.201 29.7352 19.3919 29.7352C16.5832 29.7352 16.2309 29.7229 15.1277 29.6727C14.0269 29.6223 13.2751 29.448 12.617 29.1922C11.9372 28.928 11.3602 28.5738 10.7855 27.9985C10.2104 27.4236 9.85705 26.8466 9.59267 26.1663C9.33712 25.5087 9.1628 24.7571 9.11217 23.6561C9.06218 22.5529 9.04968 22.2014 9.04968 19.3925C9.04968 16.5836 9.06261 16.2309 9.11195 15.1277C9.16151 14.0271 9.33604 13.2753 9.59245 12.6175C9.85748 11.9374 10.2109 11.3604 10.7862 10.7855C11.361 10.2104 11.9381 9.85705 12.6183 9.59288C13.2759 9.33711 14.0275 9.1628 15.1286 9.11238Z" fill="url(#paint0_linear_64_280)"/>
<path fill-rule="evenodd" clip-rule="evenodd" d="M14.0819 19.3919C14.0819 16.4587 16.4601 14.0806 19.3933 14.0806H19.3931C22.3263 14.0806 24.7038 16.4587 24.7038 19.3919C24.7038 22.3252 22.3265 24.7023 19.3933 24.7023C16.4601 24.7023 14.0819 22.3252 14.0819 19.3919ZM22.8408 19.392C22.8408 17.4879 21.2971 15.9444 19.3932 15.9444C17.4891 15.9444 15.9457 17.4879 15.9457 19.392C15.9457 21.2959 17.4891 22.8395 19.3932 22.8395C21.2971 22.8395 22.8408 21.2959 22.8408 19.392Z" fill="white"/>
<path fill-rule="evenodd" clip-rule="evenodd" d="M14.0819 19.3919C14.0819 16.4587 16.4601 14.0806 19.3933 14.0806H19.3931C22.3263 14.0806 24.7038 16.4587 24.7038 19.3919C24.7038 22.3252 22.3265 24.7023 19.3933 24.7023C16.4601 24.7023 14.0819 22.3252 14.0819 19.3919ZM22.8408 19.392C22.8408 17.4879 21.2971 15.9444 19.3932 15.9444C17.4891 15.9444 15.9457 17.4879 15.9457 19.392C15.9457 21.2959 17.4891 22.8395 19.3932 22.8395C21.2971 22.8395 22.8408 21.2959 22.8408 19.392Z" fill="url(#paint1_linear_64_280)"/>
<path fill-rule="evenodd" clip-rule="evenodd" d="M24.914 12.6308C24.2288 12.6308 23.6729 13.1861 23.6729 13.8715C23.6729 14.5567 24.2288 15.1126 24.914 15.1126C25.5992 15.1126 26.1551 14.5567 26.1551 13.8715C26.1551 13.1863 25.5992 12.6304 24.914 12.6304V12.6308Z" fill="white"/>
<path fill-rule="evenodd" clip-rule="evenodd" d="M24.914 12.6308C24.2288 12.6308 23.6729 13.1861 23.6729 13.8715C23.6729 14.5567 24.2288 15.1126 24.914 15.1126C25.5992 15.1126 26.1551 14.5567 26.1551 13.8715C26.1551 13.1863 25.5992 12.6304 24.914 12.6304V12.6308Z" fill="url(#paint2_linear_64_280)"/>
<defs>
<linearGradient id="paint0_linear_64_280" x1="0.306894" y1="13.565" x2="39.4531" y2="13.8706" gradientUnits="userSpaceOnUse">
<stop stop-color="white"/>
<stop offset="1" stop-color="#FCDDFF"/>
</linearGradient>
<linearGradient id="paint1_linear_64_280" x1="14.166" y1="17.7955" x2="24.8869" y2="17.8792" gradientUnits="userSpaceOnUse">
<stop stop-color="white"/>
<stop offset="1" stop-color="#FCDDFF"/>
</linearGradient>
<linearGradient id="paint2_linear_64_280" x1="23.6925" y1="13.4985" x2="26.1979" y2="13.5181" gradientUnits="userSpaceOnUse">
<stop stop-color="white"/>
<stop offset="1" stop-color="#FCDDFF"/>
</linearGradient>
</defs>
</svg>
