<svg width="195" height="45" viewBox="0 0 195 45" fill="none" xmlns="http://www.w3.org/2000/svg">
<path d="M35.0484 26.3788H26.6547C26.6292 26.3787 26.6039 26.3729 26.5809 26.3619C26.5579 26.3508 26.5376 26.3347 26.5216 26.3148C26.5055 26.2949 26.4942 26.2717 26.4883 26.2469C26.4824 26.222 26.4821 26.1962 26.4875 26.1712L26.6683 25.2686C26.6765 25.2304 26.6976 25.1962 26.728 25.1715C26.7584 25.1469 26.7964 25.1334 26.8355 25.1333H30.8764C31.0692 25.1332 31.2563 25.0681 31.4073 24.9485C31.5582 24.8288 31.6643 24.6618 31.7081 24.4744L32.3409 21.7666C32.3677 21.6595 32.3697 21.5478 32.3468 21.4399C32.3239 21.332 32.2767 21.2307 32.2087 21.1437C32.1407 21.0567 32.0538 20.9863 31.9546 20.9378C31.8553 20.8894 31.7463 20.8641 31.6358 20.864L18.8351 20.9091C18.6293 20.9094 18.4299 20.9798 18.2696 21.1086C18.1093 21.2375 17.9979 21.417 17.9537 21.6176L16.905 26.3788H11.151C11.1254 26.3787 11.1002 26.3729 11.0772 26.3619C11.0541 26.3508 11.0339 26.3347 11.0178 26.3148C11.0018 26.2949 10.9904 26.2717 10.9845 26.2469C10.9786 26.222 10.9784 26.1962 10.9838 26.1712L11.1646 25.2686C11.1728 25.2304 11.1939 25.1962 11.2243 25.1715C11.2547 25.1469 11.2926 25.1334 11.3318 25.1333H15.3727C15.5655 25.1332 15.7525 25.0681 15.9035 24.9485C16.0545 24.8288 16.1606 24.6618 16.2044 24.4744L16.8372 21.7666C16.864 21.6595 16.866 21.5478 16.8431 21.4399C16.8202 21.332 16.7729 21.2307 16.705 21.1437C16.637 21.0567 16.5501 20.9863 16.4509 20.9378C16.3516 20.8894 16.2426 20.8641 16.1321 20.864H7.18241C7.14484 20.8651 7.10854 20.8778 7.07857 20.9005C7.04859 20.9231 7.02643 20.9545 7.01517 20.9903L6.65809 22.281C6.6511 22.3066 6.65015 22.3334 6.6553 22.3594C6.66044 22.3854 6.67156 22.4099 6.68776 22.4309C6.70396 22.4519 6.72482 22.4688 6.74869 22.4804C6.77256 22.492 6.79879 22.4979 6.82533 22.4977H14.636C14.6618 22.4969 14.6875 22.5021 14.711 22.5129C14.7344 22.5237 14.7551 22.5398 14.7713 22.5599C14.7875 22.58 14.7988 22.6036 14.8044 22.6288C14.8099 22.6541 14.8095 22.6802 14.8032 22.7053L14.6314 23.477C14.624 23.5156 14.6031 23.5504 14.5725 23.5751C14.5419 23.5999 14.5036 23.6131 14.4642 23.6124H10.3962C10.209 23.6123 10.0275 23.6764 9.88187 23.7938C9.73627 23.9113 9.63541 24.075 9.59612 24.2577L8.98139 27.0513C8.95846 27.1565 8.95941 27.2656 8.98417 27.3704C9.00893 27.4753 9.05687 27.5733 9.12448 27.6572C9.19209 27.7412 9.27766 27.8089 9.37491 27.8556C9.47216 27.9022 9.57862 27.9266 9.68651 27.9268L22.3065 27.8997C22.5073 27.9013 22.703 27.8361 22.8626 27.7143C23.0222 27.5926 23.1367 27.4212 23.1879 27.2273L24.2365 22.5338H30.1397C30.1655 22.533 30.1912 22.5382 30.2147 22.549C30.2382 22.5598 30.2588 22.5759 30.275 22.596C30.2912 22.6161 30.3026 22.6397 30.3081 22.665C30.3136 22.6902 30.3132 22.7163 30.3069 22.7414L30.1352 23.5131C30.1277 23.5517 30.1069 23.5865 30.0763 23.6112C30.0457 23.636 30.0073 23.6492 29.9679 23.6485H25.8999C25.716 23.6485 25.5374 23.7105 25.3931 23.8243C25.2488 23.9381 25.147 24.0972 25.1044 24.2758L24.4896 27.0693C24.4667 27.1746 24.4677 27.2836 24.4924 27.3885C24.5172 27.4933 24.5651 27.5913 24.6327 27.6753C24.7003 27.7592 24.7859 27.827 24.8832 27.8736C24.9804 27.9203 25.0869 27.9446 25.1948 27.9449H34.7366C34.7741 27.9458 34.8108 27.9337 34.8405 27.9107C34.8702 27.8876 34.8909 27.8551 34.8993 27.8185L35.2202 26.591C35.2275 26.5652 35.2285 26.5381 35.2231 26.512C35.2178 26.4858 35.2062 26.4613 35.1893 26.4405C35.1725 26.4197 35.1509 26.4033 35.1264 26.3925C35.1019 26.3818 35.0751 26.3771 35.0484 26.3788ZM21.746 26.3247H18.5819L19.4227 22.5067H22.6183L21.746 26.3247Z" fill="url(#paint0_linear_221_2)"/>
<path d="M20.6657 39.8637C17.6016 39.8646 14.6061 38.9581 12.0581 37.2591C9.51008 35.56 7.52396 33.1446 6.35099 30.3183C5.17801 27.4921 4.87087 24.382 5.46842 21.3815C6.06597 18.3809 7.54136 15.6247 9.70797 13.4615C11.8746 11.2983 14.6351 9.82518 17.6403 9.22856C20.6455 8.63194 23.7604 8.9386 26.5911 10.1097C29.4217 11.2809 31.8409 13.2639 33.5426 15.808C35.2444 18.3521 36.1522 21.3429 36.1513 24.4022C36.1465 28.5013 34.5135 32.4313 31.6104 35.3298C28.7073 38.2284 24.7713 39.8589 20.6657 39.8637ZM20.6657 10.7819C17.9675 10.781 15.3296 11.5791 13.0857 13.0752C10.8417 14.5712 9.09257 16.6981 8.05939 19.1868C7.0262 21.6755 6.75541 24.4142 7.28126 27.0566C7.80711 29.6989 9.10598 32.1262 11.0136 34.0315C12.9212 35.9368 15.3519 37.2344 17.9982 37.7603C20.6445 38.2862 23.3876 38.0168 25.8805 36.986C28.3734 35.9553 30.5042 34.2095 32.0033 31.9696C33.5025 29.7297 34.3026 27.0962 34.3026 24.4022C34.2943 20.7944 32.8545 17.337 30.2987 14.7868C27.7428 12.2366 24.279 10.8014 20.6657 10.7955V10.7819Z" fill="url(#paint1_linear_221_2)"/>
<path d="M7.02422 36.3751C7.04516 36.5084 7.03693 36.6447 7.0001 36.7745C6.96328 36.9043 6.89872 37.0246 6.81088 37.1271C6.72305 37.2297 6.61401 37.312 6.49127 37.3684C6.36853 37.4248 6.235 37.4541 6.09987 37.4541C5.96474 37.4541 5.83121 37.4248 5.70847 37.3684C5.58573 37.312 5.47669 37.2297 5.38885 37.1271C5.30102 37.0246 5.23646 36.9043 5.19964 36.7745C5.16281 36.6447 5.15458 36.5084 5.17552 36.3751V24.4157H7.02422V36.3751Z" fill="url(#paint2_linear_221_2)"/>
<path d="M33.2201 10.1744L30.1902 13.1996L31.4974 14.5048L34.5274 11.4796L33.2201 10.1744Z" fill="url(#paint3_linear_221_2)"/>
<path d="M40.4454 24.4157C40.4513 21.7327 39.9097 19.0767 38.8537 16.6096C37.7977 14.1425 36.2495 11.916 34.3033 10.066C32.3572 8.21597 30.054 6.78118 27.5342 5.84912C25.0144 4.91707 22.3309 4.50729 19.6473 4.6448C16.9637 4.7823 14.3362 5.46419 11.9252 6.64888C9.51426 7.83358 7.37026 9.49624 5.62401 11.5355C3.87777 13.5747 2.56589 15.9477 1.76839 18.5098C0.970894 21.0718 0.704497 23.7693 0.985449 26.4375C0.961178 26.5713 0.966171 26.7088 1.00009 26.8405C1.034 26.9722 1.09604 27.095 1.18194 27.2005C1.26784 27.306 1.37558 27.3918 1.49777 27.4518C1.61996 27.5119 1.75372 27.5449 1.88986 27.5485C2.02601 27.5521 2.16133 27.5263 2.28655 27.4728C2.41177 27.4193 2.52393 27.3394 2.61533 27.2386C2.70674 27.1378 2.77523 27.0185 2.81612 26.8888C2.85701 26.7591 2.86933 26.6221 2.85222 26.4872C2.76478 25.8002 2.724 25.1081 2.73018 24.4157C2.72929 20.8737 3.78043 17.411 5.75066 14.4656C7.7209 11.5201 10.5217 9.22411 13.7989 7.86804C17.0761 6.51197 20.6825 6.15669 24.162 6.84715C27.6414 7.53761 30.8376 9.24278 33.3464 11.747C35.8552 14.2513 37.5638 17.4421 38.2562 20.9159C38.9486 24.3898 38.5937 27.9906 37.2364 31.2631C35.879 34.5355 33.5802 37.3326 30.6306 39.3005C27.681 41.2684 24.2132 42.3188 20.6657 42.3188C20.5349 42.3029 20.4022 42.3149 20.2765 42.3541C20.1507 42.3932 20.0347 42.4586 19.936 42.5458C19.8374 42.633 19.7585 42.7402 19.7044 42.8601C19.6504 42.9801 19.6224 43.1101 19.6224 43.2417C19.6224 43.3732 19.6504 43.5032 19.7044 43.6232C19.7585 43.7431 19.8374 43.8503 19.936 43.9375C20.0347 44.0247 20.1507 44.0901 20.2765 44.1292C20.4022 44.1684 20.5349 44.1804 20.6657 44.1646C25.9028 44.1361 30.9173 42.0463 34.6205 38.3488C38.3238 34.6513 40.4169 29.6446 40.4454 24.4157Z" fill="url(#paint4_linear_221_2)"/>
<path d="M20.9776 0.329834C20.5888 0.329834 20.2046 0.329834 20.2046 0.329834C19.5628 0.329834 18.9888 0.397528 18.5051 0.447171C18.3689 0.41883 18.2281 0.420735 18.0927 0.452754C17.9573 0.484773 17.8306 0.546121 17.7216 0.632455C17.6126 0.718789 17.5239 0.827997 17.4619 0.952346C17.3998 1.07669 17.3659 1.21314 17.3625 1.35203C17.3592 1.49092 17.3864 1.62884 17.4424 1.75604C17.4983 1.88325 17.5816 1.99661 17.6863 2.08811C17.791 2.17961 17.9146 2.24701 18.0483 2.28553C18.1819 2.32406 18.3225 2.33276 18.4599 2.31104C19.2916 2.17364 20.1356 2.12522 20.9776 2.16662C26.6685 2.17392 32.136 4.37882 36.2356 8.31979C40.3352 12.2608 42.7491 17.6323 42.9721 23.31C42.9562 23.4437 42.9695 23.5792 43.0111 23.7073C43.0526 23.8354 43.1214 23.953 43.2126 24.0521C43.3039 24.1511 43.4156 24.2294 43.54 24.2813C43.6643 24.3333 43.7985 24.3578 43.9333 24.3532C44.068 24.3486 44.2002 24.315 44.3207 24.2547C44.4412 24.1943 44.5473 24.1087 44.6315 24.0036C44.7158 23.8985 44.7764 23.7765 44.809 23.6459C44.8417 23.5152 44.8457 23.3791 44.8207 23.2468C44.771 21.7124 44.3687 12.8669 37.0734 6.34566C37.0734 6.35468 30.3386 0.329834 20.9776 0.329834Z" fill="url(#paint5_linear_221_2)"/>
<path d="M43.6636 27.999C44.2053 27.999 44.6445 27.5606 44.6445 27.0197C44.6445 26.4788 44.2053 26.0404 43.6636 26.0404C43.1219 26.0404 42.6828 26.4788 42.6828 27.0197C42.6828 27.5606 43.1219 27.999 43.6636 27.999Z" fill="url(#paint6_linear_221_2)"/>
<path d="M16.783 43.614C17.3247 43.614 17.7638 43.1755 17.7638 42.6347C17.7638 42.0938 17.3247 41.6553 16.783 41.6553C16.2413 41.6553 15.8021 42.0938 15.8021 42.6347C15.8021 43.1755 16.2413 43.614 16.783 43.614Z" fill="url(#paint7_linear_221_2)"/>
<path d="M66.4807 17.1092C66.4807 19.6455 64.8581 21.013 61.7437 21.013H54.8055V23.2695L55.3208 23.2966V25.3274H51.8268V13.1062H61.8613C64.6547 13.1062 66.4807 14.7264 66.4807 17.1092ZM63.5382 17.1092C63.5382 16.0622 62.8286 15.471 61.5223 15.471H54.8055V18.6527H61.5403C62.7924 18.6527 63.5246 18.057 63.5246 17.0912L63.5382 17.1092Z" fill="white"/>
<path d="M79.0012 25.3409L75.9909 21.013H70.3544V23.3372L70.8064 23.3101L70.8335 25.3409H67.3576V13.1062H77.3921C80.1855 13.1062 82.0161 14.7264 82.0161 17.1092C82.0161 19.0363 81.0669 20.2683 79.2227 20.7918L82.337 25.3409H79.0012ZM79.0871 17.0235C79.0871 16.0938 78.3413 15.453 77.0757 15.453H70.3544V18.6527H77.0847C78.3594 18.6527 79.0871 18.0389 79.0871 17.0235Z" fill="white"/>
<path d="M97.4249 14.7625C95.6231 13.4429 93.4467 12.7314 91.2121 12.7314C88.9775 12.7314 86.8012 13.4429 84.9993 14.7625C84.3403 15.3049 83.8095 15.9861 83.4452 16.7574C83.0808 17.5286 82.8919 18.3708 82.8919 19.2236C82.8919 20.0763 83.0808 20.9185 83.4452 21.6898C83.8095 22.4611 84.3403 23.1423 84.9993 23.6847C86.8103 24.9905 88.9873 25.6934 91.2212 25.6934C93.455 25.6934 95.6321 24.9905 97.443 23.6847C98.1136 23.1474 98.6527 22.4646 99.0193 21.688C99.3859 20.9115 99.5702 20.0617 99.5584 19.2033C99.5662 18.3495 99.378 17.5053 99.0082 16.7355C98.6383 15.9657 98.0967 15.2907 97.4249 14.7625ZM91.1963 23.3372C87.96 23.3372 85.9485 21.6809 85.9485 19.2123C85.9485 16.7437 88.0142 15.1055 91.2099 15.1055C94.4055 15.1055 96.4757 16.7978 96.4757 19.2123C96.4757 21.6267 94.4598 23.3281 91.2099 23.3281L91.1963 23.3372Z" fill="white"/>
<path d="M106.289 13.1062V21.0987C106.289 22.6196 105.308 23.107 103.156 23.107C102.166 23.107 101.497 22.9265 101.068 22.4887L99.4318 24.7452C100.58 25.4311 101.906 25.7624 103.242 25.6975C107.152 25.6975 109.267 24.0773 109.267 21.2702V13.1062H106.289Z" fill="white"/>
<path d="M111.5 25.3409V13.1062H123.189V15.453H114.465V17.9532H120.929V20.3044H114.479V23.0122H123.189V25.3635L111.5 25.3409Z" fill="white"/>
<path d="M137.391 17.2988C136.695 16.5895 135.862 16.0277 134.944 15.647C134.025 15.2663 133.039 15.0744 132.044 15.0829C128.997 15.0829 126.932 16.8069 126.932 19.1762C126.932 21.5455 129.029 23.2965 132.279 23.2965C133.25 23.3203 134.215 23.1305 135.105 22.7405C135.994 22.3506 136.787 21.77 137.427 21.0401L139.949 22.394C137.915 24.7091 135.615 25.6884 132.415 25.6884C130.385 25.7311 128.386 25.1856 126.66 24.1179C125.83 23.5952 125.147 22.8694 124.677 22.0093C124.206 21.1492 123.963 20.1833 123.971 19.2033C123.962 18.3506 124.148 17.5071 124.515 16.7368C124.881 15.9666 125.419 15.2899 126.086 14.758C127.858 13.3972 130.045 12.6865 132.279 12.7452C135.583 12.7452 138.119 13.914 140.099 16.3556L137.391 17.2988Z" fill="white"/>
<path d="M148.605 15.453V25.3409H145.627V15.453H139.787V13.1062H154.445V15.453H148.605Z" fill="white"/>
<path d="M155.919 25.3409C156.054 22.245 157.677 20.318 161.013 19.271C162.604 18.7836 164.01 18.5444 164.972 18.0209C165.231 17.9095 165.452 17.7258 165.608 17.492C165.764 17.2582 165.85 16.9842 165.854 16.7031C165.854 15.5703 164.669 14.776 162.554 14.776C160.805 14.7595 159.107 15.3641 157.763 16.4819L156.475 15.128C158.197 13.7152 160.357 12.9446 162.586 12.9482C165.836 12.9482 168.055 14.6045 168.055 16.8339C168.055 18.5399 167.002 19.5417 164.819 20.1645C163.634 20.503 162.432 20.7061 161.284 21.0942C159.828 21.5997 158.879 22.2947 158.319 23.4906H168.358V25.3364L155.919 25.3409Z" fill="white"/>
<path d="M179.902 23.6847C178.689 24.8539 177.068 25.5073 175.382 25.5073C173.696 25.5073 172.075 24.8539 170.862 23.6847C170.255 23.1115 169.772 22.4209 169.442 21.655C169.112 20.8892 168.942 20.0641 168.942 19.2303C168.942 18.3965 169.112 17.5715 169.442 16.8056C169.772 16.0398 170.255 15.3492 170.862 14.776C172.072 13.6042 173.696 12.9556 175.382 12.9708C176.217 12.9589 177.047 13.1122 177.823 13.4221C178.599 13.7319 179.305 14.1921 179.902 14.776C180.506 15.3505 180.987 16.0416 181.316 16.8073C181.644 17.5729 181.814 18.3973 181.814 19.2303C181.814 20.0634 181.644 20.8877 181.316 21.6534C180.987 22.4191 180.506 23.1102 179.902 23.6847ZM175.382 14.776C172.81 14.776 170.998 16.6173 170.998 19.2213C170.971 19.8063 171.066 20.3905 171.276 20.9373C171.486 21.484 171.807 21.9816 172.219 22.3988C172.63 22.8161 173.124 23.144 173.668 23.3622C174.212 23.5803 174.796 23.684 175.382 23.6666C177.94 23.6666 179.766 21.8073 179.766 19.2213C179.766 16.6354 177.954 14.776 175.382 14.776Z" fill="white"/>
<path d="M181.561 25.3409C181.696 22.245 183.324 20.318 186.655 19.271C188.246 18.7836 189.652 18.5444 190.614 18.0209C190.874 17.9104 191.095 17.727 191.252 17.4929C191.408 17.2589 191.493 16.9845 191.496 16.7031C191.496 15.5703 190.312 14.776 188.196 14.776C186.447 14.7595 184.749 15.3641 183.405 16.4819L182.121 15.128C183.841 13.7146 186 12.9438 188.228 12.9482C191.478 12.9528 193.702 14.591 193.702 16.8475C193.702 18.5534 192.653 19.5553 190.47 20.1781C189.286 20.5165 188.083 20.7196 186.931 21.1077C185.475 21.6132 184.526 22.3082 183.97 23.5041H194.005V25.35L181.561 25.3409Z" fill="white"/>
<path d="M52 35.8746V31.1381H54.3142C54.5573 31.1226 54.8013 31.1518 55.032 31.224C55.2626 31.2962 55.4753 31.4099 55.6575 31.5585C55.7723 31.663 55.8624 31.7881 55.9223 31.926C55.9822 32.0639 56.0105 32.2117 56.0055 32.3601C56.0107 32.5833 55.9431 32.8028 55.8115 32.9906C55.6798 33.1783 55.4901 33.3257 55.2667 33.4139C55.557 33.4694 55.8176 33.6151 56.0045 33.8265C56.1914 34.0379 56.2931 34.3019 56.2925 34.5742C56.3016 34.7614 56.2594 34.9478 56.1698 35.1162C56.0802 35.2847 55.9461 35.4298 55.7796 35.5383C55.3644 35.7796 54.8782 35.8971 54.3874 35.8746H52ZM52.8915 33.1336H54.1127C54.3629 33.1443 54.6112 33.0879 54.8271 32.9711C54.9132 32.9164 54.9826 32.8423 55.0286 32.7559C55.0746 32.6696 55.0956 32.5738 55.0896 32.4778C55.0929 32.3916 55.0728 32.3061 55.0313 32.2288C54.9897 32.1516 54.928 32.0849 54.8515 32.035C54.6514 31.9186 54.4162 31.8636 54.1798 31.878H52.8793L52.8915 33.1336ZM52.8915 35.1347H54.3935C54.6507 35.1478 54.9061 35.0892 55.1262 34.9666C55.2124 34.9119 55.2818 34.8378 55.3278 34.7515C55.3738 34.6651 55.3948 34.5693 55.3888 34.4733C55.3888 34.0529 55.0347 33.8399 54.3264 33.8399H52.8915V35.1347Z" fill="white"/>
<path d="M58.051 35.8746V31.1381H58.9608V35.1179H61.6718V35.8746H58.051Z" fill="white"/>
<path d="M67.4542 35.2356C67.015 35.6536 66.431 35.9182 65.8025 35.9839C65.174 36.0497 64.5402 35.9125 64.0098 35.596C63.4795 35.2795 63.0857 34.8033 62.8961 34.2493C62.7065 33.6953 62.7329 33.098 62.9708 32.5599C63.2087 32.0218 63.6432 31.5765 64.1998 31.3005C64.7563 31.0244 65.4002 30.9349 66.0208 31.0472C66.6414 31.1595 67.2001 31.4666 67.6009 31.9159C68.0018 32.3651 68.2197 32.9285 68.2174 33.5092C68.2231 33.8293 68.1584 34.1471 68.0273 34.4438C67.8961 34.7404 67.7012 35.0097 67.4542 35.2356ZM64.273 34.6751C64.4325 34.8342 64.6273 34.96 64.8443 35.0441C65.0613 35.1282 65.2954 35.1687 65.5308 35.1628C65.7604 35.1657 65.988 35.1237 66.1986 35.0396C66.4091 34.9555 66.5978 34.8313 66.752 34.6751C67.0688 34.3454 67.2436 33.9208 67.2436 33.4812C67.2436 33.0415 67.0688 32.617 66.752 32.2872C66.5938 32.1263 66.3993 31.9988 66.1821 31.9136C65.965 31.8285 65.7302 31.7876 65.4942 31.7939C65.2645 31.7907 65.0368 31.8325 64.8261 31.9166C64.6155 32.0007 64.4269 32.1252 64.273 32.2816C63.9442 32.6067 63.7686 33.0378 63.7845 33.4812C63.7726 33.704 63.8091 33.9269 63.8919 34.1367C63.9747 34.3465 64.1022 34.539 64.2669 34.7031L64.273 34.6751Z" fill="white"/>
<path d="M72.4427 35.9531C72.0949 35.961 71.7491 35.9023 71.4274 35.7807C71.1057 35.6591 70.8152 35.4773 70.5743 35.2468C70.0917 34.7767 69.8229 34.1552 69.8229 33.5092C69.8229 32.8632 70.0917 32.2416 70.5743 31.7715C70.82 31.5372 71.1165 31.3528 71.4446 31.2301C71.7727 31.1075 72.1252 31.0494 72.4794 31.0596C72.8704 31.0483 73.2595 31.1133 73.6212 31.2502C73.9475 31.3888 74.245 31.5785 74.5004 31.8108L73.9204 32.4273C73.5337 32.0777 73.0159 31.8771 72.4733 31.8668C72.2431 31.8605 72.0144 31.901 71.8033 31.9853C71.5922 32.0696 71.4039 32.1956 71.2521 32.3545C70.9408 32.6877 70.7697 33.1122 70.7697 33.5512C70.7697 33.9902 70.9408 34.4147 71.2521 34.748C71.4047 34.9059 71.5931 35.0313 71.804 35.1156C72.0149 35.1998 72.2433 35.2408 72.4733 35.2356C72.7429 35.2405 73.0102 35.1887 73.2548 35.0843C73.5122 34.9612 73.7487 34.8045 73.957 34.619L74.5371 35.1796C74.2757 35.4405 73.9629 35.6535 73.6151 35.8074C73.2406 35.9341 72.8404 35.9838 72.4427 35.9531Z" fill="white"/>
<path d="M76.2223 35.8746V31.1381H77.1321V33.5204L79.5745 31.1381H80.6858L78.5426 33.1784L80.7835 35.8746H79.6844L77.9259 33.7446L77.1321 34.5013V35.8746H76.2223Z" fill="white"/>
<path d="M84.3005 35.9531C83.9527 35.961 83.6069 35.9023 83.2852 35.7807C82.9635 35.6591 82.6729 35.4773 82.4321 35.2468C81.9495 34.7767 81.6807 34.1552 81.6807 33.5092C81.6807 32.8632 81.9495 32.2416 82.4321 31.7715C82.6778 31.5372 82.9742 31.3528 83.3024 31.2301C83.6305 31.1075 83.983 31.0494 84.3371 31.0596C84.7281 31.0483 85.1173 31.1133 85.4789 31.2502C85.8053 31.3888 86.1028 31.5785 86.3582 31.8108L85.7476 32.4273C85.3609 32.0777 84.8431 31.8771 84.3005 31.8668C84.0704 31.8605 83.8416 31.901 83.6305 31.9853C83.4194 32.0696 83.2312 32.1956 83.0793 32.3545C82.768 32.6877 82.5969 33.1122 82.5969 33.5512C82.5969 33.9902 82.768 34.4147 83.0793 34.748C83.232 34.9059 83.4203 35.0313 83.6312 35.1156C83.8422 35.1998 84.0705 35.2408 84.3005 35.2356C84.5702 35.2411 84.8377 35.1893 85.082 35.0843C85.3394 34.9612 85.5759 34.8045 85.7842 34.619L86.3948 35.1796C86.1335 35.4405 85.8206 35.6535 85.4728 35.8074C85.0984 35.9341 84.6982 35.9838 84.3005 35.9531Z" fill="white"/>
<path d="M88.0801 35.8746V31.1381H88.9899V33.1112H91.4322V31.1381H92.3542V35.8746H91.4506V33.8791H89.0082V35.8746H88.0801Z" fill="white"/>
<path d="M93.9723 35.8746L96.2437 31.1045H97.0802L99.3516 35.8746H98.393L97.8679 34.7536H95.4255L94.8943 35.8746H93.9723ZM95.7613 33.9968H97.5382L96.6284 32.1022L95.7613 33.9968Z" fill="white"/>
<path d="M101.025 35.8746V31.1381H101.928V35.8746H101.025Z" fill="white"/>
<path d="M104.041 35.8746V31.1381H104.884L107.644 34.4116V31.1381H108.535V35.8746H107.778L104.932 32.5114V35.8746H104.041Z" fill="white"/>
<path d="M113.432 35.8746V31.1381H114.275L117.035 34.4116V31.1381H117.926V35.8746H117.169L114.323 32.5114V35.8746H113.432Z" fill="white"/>
<path d="M119.99 35.8746V31.1381H123.812V31.8836H120.893V33.1168H123.495V33.8567H120.906V35.1291H123.861V35.8746H119.99Z" fill="white"/>
<path d="M127.06 35.9082L125.265 31.1381H126.242L127.463 34.6526L128.727 31.1269H129.491L130.761 34.6526L131.982 31.1381H132.934L131.139 35.9082H130.358L129.088 32.5058L127.824 35.9082H127.06Z" fill="white"/>
<path d="M140.011 35.9531C139.485 35.9508 138.972 35.8068 138.534 35.5392C138.097 35.2715 137.754 34.8918 137.55 34.4473C137.345 34.0027 137.287 33.5127 137.382 33.0381C137.478 32.5634 137.723 32.125 138.088 31.7771C138.334 31.5426 138.63 31.3577 138.958 31.2342C139.286 31.1106 139.638 31.0512 139.993 31.0596C140.369 31.0503 140.743 31.1034 141.098 31.2166C141.419 31.3324 141.716 31.4972 141.977 31.7042L141.403 32.332C141.209 32.1739 140.988 32.0452 140.75 31.9509C140.497 31.8601 140.228 31.8163 139.956 31.8219C139.731 31.8201 139.507 31.8632 139.302 31.9484C139.096 32.0336 138.913 32.1587 138.766 32.3152C138.447 32.6434 138.275 33.0697 138.283 33.5092C138.274 33.7306 138.312 33.9515 138.396 34.1593C138.48 34.3671 138.607 34.5576 138.772 34.7199C138.933 34.878 139.129 35.0023 139.347 35.0845C139.565 35.1667 139.8 35.2049 140.036 35.1964C140.474 35.2025 140.903 35.0765 141.257 34.8376V33.9408H139.981V33.2177H142.179V35.2076C141.583 35.6962 140.81 35.9622 140.011 35.9531Z" fill="white"/>
<path d="M144.078 35.8746V31.1381H147.918V31.8836H145V33.1168H147.583V33.8567H145V35.1291H147.918V35.8746H144.078Z" fill="white"/>
<path d="M149.75 35.8746V31.1381H150.593L153.353 34.4116V31.1381H154.244V35.8746H153.487L150.642 32.5114V35.8746H149.75Z" fill="white"/>
<path d="M156.302 35.8746V31.1381H160.13V31.8836H157.212V33.1168H159.801V33.8567H157.212V35.1291H160.167V35.8746H156.302Z" fill="white"/>
<path d="M161.962 35.8747V31.1381H164.258C164.767 31.113 165.268 31.2584 165.668 31.5473C165.839 31.6871 165.974 31.8605 166.061 32.0546C166.149 32.2487 166.188 32.4585 166.175 32.6684C166.191 33.0041 166.071 33.3333 165.839 33.5933C165.605 33.8445 165.291 34.0227 164.942 34.1034L166.334 35.8971H165.265L163.983 34.2491H162.878V35.8971L161.962 35.8747ZM162.866 33.4868H164.191C164.469 33.5004 164.744 33.423 164.966 33.2682C165.057 33.2003 165.129 33.1148 165.179 33.0178C165.229 32.9208 165.254 32.8148 165.253 32.7076C165.257 32.6005 165.234 32.494 165.186 32.3966C165.137 32.2992 165.064 32.2138 164.972 32.1471C164.743 31.9987 164.465 31.9274 164.185 31.9453H162.878L162.866 33.4868Z" fill="white"/>
<path d="M167.592 35.8746L169.863 31.1045H170.7L172.971 35.8746H172.012L171.487 34.7536H169.045L168.514 35.8746H167.592ZM169.381 33.9968H171.158L170.266 32.1022L169.381 33.9968Z" fill="white"/>
<path d="M175.194 35.8746V31.9116H173.563V31.1381H177.746V31.9116H176.116V35.8746H175.194Z" fill="white"/>
<path d="M179.486 35.8746V31.1381H180.396V35.8746H179.486Z" fill="white"/>
<path d="M186.905 35.2356C186.467 35.6479 185.886 35.9074 185.262 35.9697C184.638 36.0319 184.01 35.8931 183.485 35.577C182.96 35.2608 182.572 34.7871 182.386 34.2368C182.2 33.6866 182.228 33.0941 182.466 32.5608C182.703 32.0276 183.136 31.5868 183.688 31.314C184.241 31.0411 184.88 30.9532 185.496 31.0653C186.111 31.1774 186.665 31.4825 187.063 31.9283C187.46 32.3742 187.676 32.9331 187.674 33.5092C187.68 33.8298 187.615 34.148 187.482 34.4448C187.35 34.7415 187.154 35.0106 186.905 35.2356ZM183.73 34.6751C183.892 34.8294 184.087 34.9521 184.302 35.0358C184.517 35.1196 184.748 35.1628 184.982 35.1628C185.215 35.1628 185.446 35.1196 185.661 35.0358C185.876 34.9521 186.071 34.8294 186.233 34.6751C186.561 34.3514 186.736 33.9226 186.722 33.4812C186.733 33.0382 186.553 32.6091 186.221 32.2872C186.059 32.1322 185.865 32.0089 185.65 31.9247C185.435 31.8404 185.203 31.797 184.969 31.797C184.735 31.797 184.504 31.8404 184.289 31.9247C184.074 32.0089 183.879 32.1322 183.718 32.2872C183.392 32.6139 183.216 33.0439 183.229 33.4868C183.22 33.7099 183.26 33.9323 183.346 34.1412C183.432 34.35 183.563 34.541 183.73 34.7031V34.6751Z" fill="white"/>
<path d="M189.506 35.8746V31.1381H190.343L193.109 34.4116V31.1381H194V35.8746H193.237L190.397 32.5114V35.8746H189.506Z" fill="white"/>
<defs>
<linearGradient id="paint0_linear_221_2" x1="388.8" y1="76.3233" x2="154.044" y2="328.864" gradientUnits="userSpaceOnUse">
<stop stop-color="#E814F9"/>
<stop offset="0.38" stop-color="#EE14FF"/>
<stop offset="0.75" stop-color="#5238B5"/>
<stop offset="1" stop-color="#63A4DE"/>
</linearGradient>
<linearGradient id="paint1_linear_221_2" x1="388.8" y1="76.3233" x2="154.044" y2="328.864" gradientUnits="userSpaceOnUse">
<stop stop-color="#E814F9"/>
<stop offset="0.38" stop-color="#EE14FF"/>
<stop offset="0.75" stop-color="#5238B5"/>
<stop offset="1" stop-color="#63A4DE"/>
</linearGradient>
<linearGradient id="paint2_linear_221_2" x1="388.8" y1="76.3233" x2="154.044" y2="328.864" gradientUnits="userSpaceOnUse">
<stop stop-color="#E814F9"/>
<stop offset="0.38" stop-color="#EE14FF"/>
<stop offset="0.75" stop-color="#5238B5"/>
<stop offset="1" stop-color="#63A4DE"/>
</linearGradient>
<linearGradient id="paint3_linear_221_2" x1="388.8" y1="76.3233" x2="154.044" y2="328.864" gradientUnits="userSpaceOnUse">
<stop stop-color="#E814F9"/>
<stop offset="0.38" stop-color="#EE14FF"/>
<stop offset="0.75" stop-color="#5238B5"/>
<stop offset="1" stop-color="#63A4DE"/>
</linearGradient>
<linearGradient id="paint4_linear_221_2" x1="388.8" y1="76.3233" x2="154.044" y2="328.864" gradientUnits="userSpaceOnUse">
<stop stop-color="#E814F9"/>
<stop offset="0.38" stop-color="#EE14FF"/>
<stop offset="0.75" stop-color="#5238B5"/>
<stop offset="1" stop-color="#63A4DE"/>
</linearGradient>
<linearGradient id="paint5_linear_221_2" x1="388.8" y1="76.3233" x2="154.044" y2="328.864" gradientUnits="userSpaceOnUse">
<stop stop-color="#E814F9"/>
<stop offset="0.38" stop-color="#EE14FF"/>
<stop offset="0.75" stop-color="#5238B5"/>
<stop offset="1" stop-color="#63A4DE"/>
</linearGradient>
<linearGradient id="paint6_linear_221_2" x1="388.8" y1="76.3233" x2="154.044" y2="328.864" gradientUnits="userSpaceOnUse">
<stop stop-color="#E814F9"/>
<stop offset="0.38" stop-color="#EE14FF"/>
<stop offset="0.75" stop-color="#5238B5"/>
<stop offset="1" stop-color="#63A4DE"/>
</linearGradient>
<linearGradient id="paint7_linear_221_2" x1="388.8" y1="76.3233" x2="154.044" y2="328.864" gradientUnits="userSpaceOnUse">
<stop stop-color="#E814F9"/>
<stop offset="0.38" stop-color="#EE14FF"/>
<stop offset="0.75" stop-color="#5238B5"/>
<stop offset="1" stop-color="#63A4DE"/>
</linearGradient>
</defs>
</svg>
