<svg width="29" height="29" viewBox="0 0 29 29" fill="none" xmlns="http://www.w3.org/2000/svg">
<path d="M2.9043 8.5316L14.4999 14.3287L26.0956 8.5316C26.0527 7.79275 25.7289 7.09826 25.1905 6.59038C24.6522 6.0825 23.94 5.79967 23.1999 5.7998H5.79995C5.05984 5.79967 4.3477 6.0825 3.80935 6.59038C3.27101 7.09826 2.94722 7.79275 2.9043 8.5316Z" fill="white"/>
<path d="M2.9043 8.5316L14.4999 14.3287L26.0956 8.5316C26.0527 7.79275 25.7289 7.09826 25.1905 6.59038C24.6522 6.0825 23.94 5.79967 23.1999 5.7998H5.79995C5.05984 5.79967 4.3477 6.0825 3.80935 6.59038C3.27101 7.09826 2.94722 7.79275 2.9043 8.5316Z" fill="url(#paint0_linear_64_311)"/>
<path d="M26.1 11.771L14.5 17.571L2.90002 11.771V20.2999C2.90002 21.069 3.20556 21.8067 3.74941 22.3505C4.29327 22.8944 5.0309 23.1999 5.80002 23.1999H23.2C23.9692 23.1999 24.7068 22.8944 25.2506 22.3505C25.7945 21.8067 26.1 21.069 26.1 20.2999V11.771Z" fill="white"/>
<path d="M26.1 11.771L14.5 17.571L2.90002 11.771V20.2999C2.90002 21.069 3.20556 21.8067 3.74941 22.3505C4.29327 22.8944 5.0309 23.1999 5.80002 23.1999H23.2C23.9692 23.1999 24.7068 22.8944 25.2506 22.3505C25.7945 21.8067 26.1 21.069 26.1 20.2999V11.771Z" fill="url(#paint1_linear_64_311)"/>
<defs>
<linearGradient id="paint0_linear_64_311" x1="3.08781" y1="8.78281" x2="26.4863" y2="9.27946" gradientUnits="userSpaceOnUse">
<stop stop-color="white"/>
<stop offset="1" stop-color="#FCDDFF"/>
</linearGradient>
<linearGradient id="paint1_linear_64_311" x1="3.0836" y1="15.7683" x2="26.4955" y2="16.1393" gradientUnits="userSpaceOnUse">
<stop stop-color="white"/>
<stop offset="1" stop-color="#FCDDFF"/>
</linearGradient>
</defs>
</svg>
