<svg width="39" height="39" viewBox="0 0 39 39" fill="none" xmlns="http://www.w3.org/2000/svg">
<path fill-rule="evenodd" clip-rule="evenodd" d="M19.6077 38.7845C30.3178 38.7845 39 30.1023 39 19.3923C39 8.68221 30.3178 0 19.6077 0C8.89767 0 0.215454 8.68221 0.215454 19.3923C0.215454 30.1023 8.89767 38.7845 19.6077 38.7845ZM16.0525 28.2803C16.5241 28.2803 16.7397 28.0705 17.0002 27.8168L17.0221 27.7955L19.3513 25.5307L24.1972 29.1109C25.089 29.603 25.7327 29.3482 25.9548 28.283L29.136 13.2922C29.4617 11.9865 28.6382 11.3942 27.7851 11.7816L9.10546 18.9843C7.83041 19.4958 7.83784 20.2071 8.87305 20.5241L13.6667 22.0202L24.7644 15.0188C25.2883 14.7011 25.7691 14.8719 25.3744 15.2222L16.3827 23.3366L16.3825 23.3364L16.3825 23.3368L16.3822 23.337L16.3824 23.3372L16.0525 28.2803Z" fill="white"/>
<path fill-rule="evenodd" clip-rule="evenodd" d="M19.6077 38.7845C30.3178 38.7845 39 30.1023 39 19.3923C39 8.68221 30.3178 0 19.6077 0C8.89767 0 0.215454 8.68221 0.215454 19.3923C0.215454 30.1023 8.89767 38.7845 19.6077 38.7845ZM16.0525 28.2803C16.5241 28.2803 16.7397 28.0705 17.0002 27.8168L17.0221 27.7955L19.3513 25.5307L24.1972 29.1109C25.089 29.603 25.7327 29.3482 25.9548 28.283L29.136 13.2922C29.4617 11.9865 28.6382 11.3942 27.7851 11.7816L9.10546 18.9843C7.83041 19.4958 7.83784 20.2071 8.87305 20.5241L13.6667 22.0202L24.7644 15.0188C25.2883 14.7011 25.7691 14.8719 25.3744 15.2222L16.3827 23.3366L16.3825 23.3364L16.3825 23.3368L16.3822 23.337L16.3824 23.3372L16.0525 28.2803Z" fill="url(#paint0_linear_64_293)"/>
<defs>
<linearGradient id="paint0_linear_64_293" x1="0.522348" y1="13.565" x2="39.6686" y2="13.8706" gradientUnits="userSpaceOnUse">
<stop stop-color="white"/>
<stop offset="1" stop-color="#FCDDFF"/>
</linearGradient>
</defs>
</svg>
