<svg width="40" height="39" viewBox="0 0 40 39" fill="none" xmlns="http://www.w3.org/2000/svg">
<path fill-rule="evenodd" clip-rule="evenodd" d="M19.6796 0C8.96957 0 0.287354 8.68221 0.287354 19.3923C0.287354 30.1023 8.96957 38.7845 19.6796 38.7845C30.3897 38.7845 39.0719 30.1023 39.0719 19.3923C39.0719 8.68221 30.3897 0 19.6796 0ZM19.1396 16.4332L19.0989 15.7622C18.9768 14.023 20.0484 12.4345 21.7439 11.8182C22.3679 11.5991 23.4259 11.5717 24.1177 11.7635C24.389 11.8456 24.9045 12.1195 25.2707 12.366L25.9354 12.8179L26.6678 12.5851C27.0748 12.4619 27.6174 12.2565 27.8615 12.1195C28.0921 11.9963 28.2956 11.9278 28.2956 11.9689C28.2956 12.2017 27.7937 12.9959 27.3732 13.4342C26.8035 14.0504 26.9663 14.1052 28.1192 13.6943C28.811 13.4615 28.8246 13.4615 28.689 13.7217C28.6076 13.8587 28.1871 14.338 27.7394 14.7762C26.9798 15.5294 26.9391 15.6115 26.9391 16.2415C26.9391 17.2138 26.4779 19.2405 26.0167 20.3497C25.1622 22.4312 23.331 24.5812 21.4998 25.6631C18.9225 27.1831 15.4907 27.5666 12.6015 26.6765C11.6384 26.3752 9.98352 25.6083 9.98352 25.4714C9.98352 25.4303 10.4854 25.3755 11.0958 25.3618C12.3709 25.3344 13.6459 24.9784 14.7311 24.3484L15.4636 23.9102L14.6226 23.6226C13.4289 23.2118 12.3573 22.2669 12.086 21.3768C12.0046 21.0892 12.0318 21.0755 12.7914 21.0755L13.5781 21.0618L12.9135 20.7469C12.1267 20.3497 11.4078 19.6787 11.0551 18.994C10.7974 18.501 10.4718 17.2548 10.5668 17.159C10.5939 17.1179 10.8788 17.2001 11.2043 17.3096C12.1403 17.652 12.2624 17.5698 11.7198 16.9946C10.7024 15.9539 10.3905 14.4064 10.8788 12.9412L11.1094 12.2838L12.0046 13.174C13.8358 14.9679 15.9926 16.0361 18.4613 16.351L19.1396 16.4332Z" fill="white"/>
<path fill-rule="evenodd" clip-rule="evenodd" d="M19.6796 0C8.96957 0 0.287354 8.68221 0.287354 19.3923C0.287354 30.1023 8.96957 38.7845 19.6796 38.7845C30.3897 38.7845 39.0719 30.1023 39.0719 19.3923C39.0719 8.68221 30.3897 0 19.6796 0ZM19.1396 16.4332L19.0989 15.7622C18.9768 14.023 20.0484 12.4345 21.7439 11.8182C22.3679 11.5991 23.4259 11.5717 24.1177 11.7635C24.389 11.8456 24.9045 12.1195 25.2707 12.366L25.9354 12.8179L26.6678 12.5851C27.0748 12.4619 27.6174 12.2565 27.8615 12.1195C28.0921 11.9963 28.2956 11.9278 28.2956 11.9689C28.2956 12.2017 27.7937 12.9959 27.3732 13.4342C26.8035 14.0504 26.9663 14.1052 28.1192 13.6943C28.811 13.4615 28.8246 13.4615 28.689 13.7217C28.6076 13.8587 28.1871 14.338 27.7394 14.7762C26.9798 15.5294 26.9391 15.6115 26.9391 16.2415C26.9391 17.2138 26.4779 19.2405 26.0167 20.3497C25.1622 22.4312 23.331 24.5812 21.4998 25.6631C18.9225 27.1831 15.4907 27.5666 12.6015 26.6765C11.6384 26.3752 9.98352 25.6083 9.98352 25.4714C9.98352 25.4303 10.4854 25.3755 11.0958 25.3618C12.3709 25.3344 13.6459 24.9784 14.7311 24.3484L15.4636 23.9102L14.6226 23.6226C13.4289 23.2118 12.3573 22.2669 12.086 21.3768C12.0046 21.0892 12.0318 21.0755 12.7914 21.0755L13.5781 21.0618L12.9135 20.7469C12.1267 20.3497 11.4078 19.6787 11.0551 18.994C10.7974 18.501 10.4718 17.2548 10.5668 17.159C10.5939 17.1179 10.8788 17.2001 11.2043 17.3096C12.1403 17.652 12.2624 17.5698 11.7198 16.9946C10.7024 15.9539 10.3905 14.4064 10.8788 12.9412L11.1094 12.2838L12.0046 13.174C13.8358 14.9679 15.9926 16.0361 18.4613 16.351L19.1396 16.4332Z" fill="url(#paint0_linear_64_289)"/>
<defs>
<linearGradient id="paint0_linear_64_289" x1="0.594248" y1="13.565" x2="39.7405" y2="13.8706" gradientUnits="userSpaceOnUse">
<stop stop-color="white"/>
<stop offset="1" stop-color="#FCDDFF"/>
</linearGradient>
</defs>
</svg>
